<svg fill="none" height="528" viewBox="0 0 690 528" width="690" xmlns="http://www.w3.org/2000/svg" xmlns:xlink="http://www.w3.org/1999/xlink"><linearGradient id="a"><stop offset="0" stop-color="#0c132c"/><stop offset=".15" stop-color="#121b3f"/><stop offset=".32" stop-color="#16204b"/><stop offset=".47" stop-color="#17224f"/><stop offset=".65" stop-color="#15204a"/><stop offset=".85" stop-color="#111a3c"/><stop offset="1" stop-color="#0c132c"/></linearGradient><linearGradient id="b" gradientUnits="userSpaceOnUse" x1=".999762" x2="610.917" xlink:href="#a" y1="449.175" y2="449.175"/><linearGradient id="c" gradientUnits="userSpaceOnUse" x1=".999762" x2="586.11" xlink:href="#a" y1="420.585" y2="420.585"/><linearGradient id="d" gradientUnits="userSpaceOnUse" x1=".999762" x2="560.993" xlink:href="#a" y1="391.644" y2="391.644"/><linearGradient id="e" gradientUnits="userSpaceOnUse" x1=".999762" x2="537.168" xlink:href="#a" y1="364.188" y2="364.188"/><linearGradient id="f" gradientUnits="userSpaceOnUse" x1=".999762" x2="511.858" xlink:href="#a" y1="335.011" y2="335.011"/><linearGradient id="g" gradientUnits="userSpaceOnUse" x1=".999762" x2="487.424" xlink:href="#a" y1="306.849" y2="306.849"/><linearGradient id="h" gradientUnits="userSpaceOnUse" x1=".999762" x2="462.736" xlink:href="#a" y1="278.401" y2="278.401"/><linearGradient id="i" gradientUnits="userSpaceOnUse" x1=".999762" x2="416.557" xlink:href="#a" y1="249.646" y2="249.646"/><linearGradient id="j" gradientUnits="userSpaceOnUse" x1=".999762" x2="660.182" xlink:href="#a" y1="505.954" y2="505.954"/><linearGradient id="k" gradientUnits="userSpaceOnUse" x1=".999762" x2="635.375" xlink:href="#a" y1="477.369" y2="477.369"/><linearGradient id="l" gradientUnits="userSpaceOnUse" x1="62.6287" x2="688.119" xlink:href="#a" y1="527.499" y2="527.499"/><linearGradient id="m" gradientUnits="userSpaceOnUse" x1="13.0154" x2="684.883" xlink:href="#a" y1="527.496" y2="527.496"/><linearGradient id="n" gradientUnits="userSpaceOnUse" x1="161.172" x2="688.113" xlink:href="#a" y1="527.499" y2="527.499"/><linearGradient id="o" gradientUnits="userSpaceOnUse" x1="111.552" x2="688.106" xlink:href="#a" y1="527.499" y2="527.499"/><linearGradient id="p" gradientUnits="userSpaceOnUse" x1="260.179" x2="688.106" xlink:href="#a" y1="527.502" y2="527.502"/><linearGradient id="q" gradientUnits="userSpaceOnUse" x1="210.56" x2="688.099" xlink:href="#a" y1="527.497" y2="527.497"/><linearGradient id="r" gradientUnits="userSpaceOnUse" x1="358.711" x2="688.1" xlink:href="#a" y1="527.5" y2="527.5"/><linearGradient id="s" gradientUnits="userSpaceOnUse" x1="309.097" x2="688.094" xlink:href="#a" y1="527.497" y2="527.497"/><linearGradient id="t" gradientUnits="userSpaceOnUse" x1="457.738" x2="688.094" xlink:href="#a" y1="527.5" y2="527.5"/><linearGradient id="u" gradientUnits="userSpaceOnUse" x1="408.119" x2="688.088" xlink:href="#a" y1="527.497" y2="527.497"/><linearGradient id="v" gradientUnits="userSpaceOnUse" x1="556.267" x2="688.086" xlink:href="#a" y1="527.497" y2="527.497"/><linearGradient id="w" gradientUnits="userSpaceOnUse" x1="506.654" x2="688.086" xlink:href="#a" y1="527.499" y2="527.499"/><linearGradient id="x" gradientUnits="userSpaceOnUse" x1="655.32" x2="688.13" xlink:href="#a" y1="527.502" y2="527.502"/><linearGradient id="y" gradientUnits="userSpaceOnUse" x1="605.707" x2="688.124" xlink:href="#a" y1="527.499" y2="527.499"/><linearGradient id="z" gradientUnits="userSpaceOnUse" x1="124.455" x2="689.037" xlink:href="#a" y1="446.773" y2="446.773"/><linearGradient id="A" gradientUnits="userSpaceOnUse" x1="149.261" x2="689.037" xlink:href="#a" y1="418.183" y2="418.183"/><linearGradient id="B" gradientUnits="userSpaceOnUse" x1="174.373" x2="689.038" xlink:href="#a" y1="389.239" y2="389.239"/><linearGradient id="C" gradientUnits="userSpaceOnUse" x1="198.197" x2="689.037" xlink:href="#a" y1="361.782" y2="361.782"/><linearGradient id="D" gradientUnits="userSpaceOnUse" x1="223.519" x2="689.037" xlink:href="#a" y1="332.61" y2="332.61"/><linearGradient id="E" gradientUnits="userSpaceOnUse" x1="247.941" x2="689.037" xlink:href="#a" y1="304.45" y2="304.45"/><linearGradient id="F" gradientUnits="userSpaceOnUse" x1="272.636" x2="689.038" xlink:href="#a" y1="276.002" y2="276.002"/><linearGradient id="G" gradientUnits="userSpaceOnUse" x1="297.586" x2="689.038" xlink:href="#a" y1="247.253" y2="247.253"/><linearGradient id="H" gradientUnits="userSpaceOnUse" x1="327.023" x2="689.037" xlink:href="#a" y1="219.093" y2="219.093"/><linearGradient id="I" gradientUnits="userSpaceOnUse" x1="75.1892" x2="689.037" xlink:href="#a" y1="503.554" y2="503.554"/><linearGradient id="J" gradientUnits="userSpaceOnUse" x1="99.99" x2="689.037" xlink:href="#a" y1="474.961" y2="474.961"/><linearGradient id="K" gradientUnits="userSpaceOnUse" x1="25.6755" x2="631.575" xlink:href="#a" y1="527.499" y2="527.499"/><linearGradient id="L" gradientUnits="userSpaceOnUse" x1="50.488" x2="681.188" xlink:href="#a" y1="527.499" y2="527.499"/><linearGradient id="M" gradientUnits="userSpaceOnUse" x1="6.09156" x2="533.033" xlink:href="#a" y1="527.499" y2="527.499"/><linearGradient id="N" gradientUnits="userSpaceOnUse" x1="6.09742" x2="582.651" xlink:href="#a" y1="527.499" y2="527.499"/><linearGradient id="O" gradientUnits="userSpaceOnUse" x1="6.09742" x2="434.023" xlink:href="#a" y1="527.502" y2="527.502"/><linearGradient id="P" gradientUnits="userSpaceOnUse" x1="6.10328" x2="483.642" xlink:href="#a" y1="527.499" y2="527.499"/><linearGradient id="Q" gradientUnits="userSpaceOnUse" x1="6.10328" x2="335.493" xlink:href="#a" y1="527.501" y2="527.501"/><linearGradient id="R" gradientUnits="userSpaceOnUse" x1="6.10914" x2="385.105" xlink:href="#a" y1="527.499" y2="527.499"/><linearGradient id="S" gradientUnits="userSpaceOnUse" x1="6.10914" x2="236.465" xlink:href="#a" y1="527.502" y2="527.502"/><linearGradient id="T" gradientUnits="userSpaceOnUse" x1="6.11535" x2="286.084" xlink:href="#a" y1="527.497" y2="527.497"/><linearGradient id="U" gradientUnits="userSpaceOnUse" x1="6.11535" x2="137.934" xlink:href="#a" y1="527.497" y2="527.497"/><linearGradient id="V" gradientUnits="userSpaceOnUse" x1="6.12316" x2="187.549" xlink:href="#a" y1="527.497" y2="527.497"/><linearGradient id="W" gradientUnits="userSpaceOnUse" x1="6.07203" x2="38.8824" xlink:href="#a" y1="527.502" y2="527.502"/><linearGradient id="X" gradientUnits="userSpaceOnUse" x1="6.07984" x2="88.497" xlink:href="#a" y1="527.499" y2="527.499"/><linearGradient id="Y" gradientUnits="userSpaceOnUse" x1="702.5" x2="482.277" y1="16.5" y2="451.813"><stop offset="0" stop-color="#2b3f93"/><stop offset="1" stop-color="#0c132c" stop-opacity="0"/></linearGradient><linearGradient id="Z" gradientUnits="userSpaceOnUse" x1="351.973" x2="612.581" y1="451.813" y2="451.813"><stop offset="0" stop-color="#17224f"/><stop offset=".02" stop-color="#192455"/><stop offset=".16" stop-color="#20306f"/><stop offset=".31" stop-color="#263984"/><stop offset=".48" stop-color="#2b3f93"/><stop offset=".68" stop-color="#2d439b"/><stop offset="1" stop-color="#2e449e"/></linearGradient><linearGradient id="aa" gradientUnits="userSpaceOnUse" x1="294.244" x2="589.929" y1="483.858" y2="483.858"><stop offset="0" stop-color="#0c132c"/><stop offset=".58" stop-color="#33458b"/><stop offset="1" stop-color="#4d66cb"/></linearGradient><linearGradient id="ab"><stop offset="0" stop-color="#4d66cb" stop-opacity=".01"/><stop offset=".67" stop-color="#4d66cb" stop-opacity=".68"/><stop offset="1" stop-color="#4d66cb"/></linearGradient><linearGradient id="ac" gradientUnits="userSpaceOnUse" x1="294.437" x2="589.774" xlink:href="#ab" y1="217.517" y2="217.517"/><linearGradient id="ad" gradientUnits="userSpaceOnUse" x1="294.418" x2="589.774" xlink:href="#ab" y1="226.083" y2="226.083"/><linearGradient id="ae" gradientUnits="userSpaceOnUse" x1="294.418" x2="589.774" xlink:href="#ab" y1="234.658" y2="234.658"/><linearGradient id="af" gradientUnits="userSpaceOnUse" x1="294.418" x2="589.774" xlink:href="#ab" y1="243.235" y2="243.235"/><linearGradient id="ag" gradientUnits="userSpaceOnUse" x1="294.418" x2="589.774" xlink:href="#ab" y1="251.81" y2="251.81"/><linearGradient id="ah" gradientUnits="userSpaceOnUse" x1="294.418" x2="589.774" xlink:href="#ab" y1="260.388" y2="260.388"/><linearGradient id="ai" gradientUnits="userSpaceOnUse" x1="294.418" x2="589.774" xlink:href="#ab" y1="268.962" y2="268.962"/><linearGradient id="aj" gradientUnits="userSpaceOnUse" x1="294.418" x2="589.774" xlink:href="#ab" y1="277.536" y2="277.536"/><linearGradient id="ak" gradientUnits="userSpaceOnUse" x1="294.418" x2="589.774" xlink:href="#ab" y1="286.114" y2="286.114"/><linearGradient id="al" gradientUnits="userSpaceOnUse" x1="294.418" x2="589.774" xlink:href="#ab" y1="294.692" y2="294.692"/><linearGradient id="am" gradientUnits="userSpaceOnUse" x1="294.418" x2="589.774" xlink:href="#ab" y1="303.266" y2="303.266"/><linearGradient id="an" gradientUnits="userSpaceOnUse" x1="294.418" x2="589.774" xlink:href="#ab" y1="311.841" y2="311.841"/><linearGradient id="ao" gradientUnits="userSpaceOnUse" x1="294.418" x2="589.774" xlink:href="#ab" y1="320.418" y2="320.418"/><linearGradient id="ap" gradientUnits="userSpaceOnUse" x1="294.418" x2="589.774" xlink:href="#ab" y1="328.993" y2="328.993"/><linearGradient id="aq" gradientUnits="userSpaceOnUse" x1="294.418" x2="589.774" xlink:href="#ab" y1="337.571" y2="337.571"/><linearGradient id="ar" gradientUnits="userSpaceOnUse" x1="294.418" x2="589.774" xlink:href="#ab" y1="346.145" y2="346.145"/><linearGradient id="as" gradientUnits="userSpaceOnUse" x1="294.418" x2="589.774" xlink:href="#ab" y1="354.72" y2="354.72"/><linearGradient id="at" gradientUnits="userSpaceOnUse" x1="294.418" x2="589.774" xlink:href="#ab" y1="363.297" y2="363.297"/><linearGradient id="au" gradientUnits="userSpaceOnUse" x1="294.418" x2="589.774" xlink:href="#ab" y1="371.872" y2="371.872"/><linearGradient id="av" gradientUnits="userSpaceOnUse" x1="294.418" x2="589.774" xlink:href="#ab" y1="380.449" y2="380.449"/><linearGradient id="aw" gradientUnits="userSpaceOnUse" x1="294.418" x2="589.774" xlink:href="#ab" y1="389.024" y2="389.024"/><linearGradient id="ax" gradientUnits="userSpaceOnUse" x1="294.418" x2="589.774" xlink:href="#ab" y1="397.601" y2="397.601"/><linearGradient id="ay" gradientUnits="userSpaceOnUse" x1="294.418" x2="589.774" xlink:href="#ab" y1="406.176" y2="406.176"/><linearGradient id="az" gradientUnits="userSpaceOnUse" x1="294.418" x2="589.774" xlink:href="#ab" y1="414.754" y2="414.754"/><linearGradient id="aA" gradientUnits="userSpaceOnUse" x1="294.418" x2="589.774" xlink:href="#ab" y1="423.328" y2="423.328"/><linearGradient id="aB" gradientUnits="userSpaceOnUse" x1="294.418" x2="589.774" xlink:href="#ab" y1="431.903" y2="431.903"/><linearGradient id="aC" gradientUnits="userSpaceOnUse" x1="294.418" x2="589.774" xlink:href="#ab" y1="440.48" y2="440.48"/><linearGradient id="aD" gradientUnits="userSpaceOnUse" x1="294.418" x2="589.774" xlink:href="#ab" y1="449.055" y2="449.055"/><linearGradient id="aE" gradientUnits="userSpaceOnUse" x1="294.418" x2="589.774" xlink:href="#ab" y1="457.632" y2="457.632"/><linearGradient id="aF" gradientUnits="userSpaceOnUse" x1="294.418" x2="589.774" xlink:href="#ab" y1="466.207" y2="466.207"/><linearGradient id="aG" gradientUnits="userSpaceOnUse" x1="294.418" x2="589.774" xlink:href="#ab" y1="474.782" y2="474.782"/><linearGradient id="aH" gradientUnits="userSpaceOnUse" x1="294.418" x2="589.774" xlink:href="#ab" y1="483.359" y2="483.359"/><linearGradient id="aI" gradientUnits="userSpaceOnUse" x1="564.02" x2="564.02" y1="510.733" y2="40.3513"><stop offset="0" stop-color="#17224f"/><stop offset=".31" stop-color="#293979"/><stop offset=".78" stop-color="#4359b4"/><stop offset="1" stop-color="#4d66cb"/></linearGradient><linearGradient id="aJ"><stop offset="0" stop-color="#f66"/><stop offset="1" stop-color="#f8b500"/></linearGradient><linearGradient id="aK" gradientUnits="userSpaceOnUse" x1="335.289" x2="335.289" xlink:href="#aJ" y1="127.85" y2="207.939"/><linearGradient id="aL" gradientUnits="userSpaceOnUse" x1="400.735" x2="400.735" xlink:href="#aJ" y1="148.575" y2="305.537"/><linearGradient id="aM" gradientUnits="userSpaceOnUse" x1="262.632" x2="252.659" y1="272.07" y2="432.359"><stop offset="0" stop-color="#0c132c"/><stop offset="1" stop-color="#0c132c" stop-opacity="0"/></linearGradient><linearGradient id="aN" gradientUnits="userSpaceOnUse" x1="283.697" x2="252.659" y1="259.852" y2="432.359"><stop offset="0" stop-color="#6686ff"/><stop offset="1" stop-color="#f66"/></linearGradient><linearGradient id="aO" gradientUnits="userSpaceOnUse" x1="261.929" x2="261.929" y1="251.426" y2="440.785"><stop offset="0" stop-color="#335dff" stop-opacity=".7"/><stop offset="1" stop-color="#335dff" stop-opacity="0"/></linearGradient><linearGradient id="aP" gradientUnits="userSpaceOnUse" x1="451.967" x2="418.188" xlink:href="#aJ" y1="341.789" y2="404.892"/><linearGradient id="aQ" gradientUnits="userSpaceOnUse" x1="459.567" x2="448.561" xlink:href="#aJ" y1="324.815" y2="345.375"/><linearGradient id="aR" gradientUnits="userSpaceOnUse" x1="492.519" x2="484.295" xlink:href="#aJ" y1="338.657" y2="354.021"/><linearGradient id="aS" gradientUnits="userSpaceOnUse" x1="466.76" x2="459.723" xlink:href="#aJ" y1="375.282" y2="388.428"/><linearGradient id="aT" gradientUnits="userSpaceOnUse" x1="386.576" x2="359.256" y1="332.823" y2="488.739"><stop offset=".0257333" stop-color="#475ebc"/><stop offset=".990337" stop-color="#212e61"/></linearGradient><linearGradient id="aU" gradientUnits="userSpaceOnUse" x1="363.221" x2="427.991" y1="390.388" y2="390.388"><stop offset="0" stop-color="#4d66cb"/><stop offset=".25" stop-color="#4a69cb"/><stop offset=".45" stop-color="#4273cb"/><stop offset=".64" stop-color="#3484cc"/><stop offset=".665545" stop-color="#209bcc"/><stop offset=".806228" stop-color="#06b9cd"/><stop offset="1" stop-color="#00efff"/></linearGradient><path d="m1 0h688v528h-688z"/><g stroke-width=".91"><path d="m610.774 97.7988-41.168 23.7242-24.95 14.376-24.427 14.072-24.943 14.376-24.695 14.233-24.428 14.072-25.309 14.593h-.007l-23.819 13.725-25.117 14.469-24.812 14.295-24.453 14.097-24.813 14.295-24.701 14.234-24.812 14.295-24.453 14.097-24.813 14.295-24.694 14.233-24.813 14.289-24.459 14.097-24.806 14.295-24.6951 14.24h-.0062l-24.8127 14.295-24.4588 14.091-25.16662 14.506" stroke="url(#b)"/><path d="m585.967 83.5034-41.168 23.7246-24.949 14.375-24.428 14.073-24.949 14.375-24.689 14.227-24.427 14.079-25.316 14.593-23.825 13.725-25.117 14.468-24.807 14.296-24.459 14.097-24.8 14.295-24.713 14.233-24.801 14.295h-.006l-24.459 14.097-24.806 14.296-24.695 14.233h-.006l-24.8 14.295-24.465 14.091h-.007l-24.7999 14.295-24.7009 14.233-24.8127 14.302-24.81892 14.301" stroke="url(#c)"/><path d="m560.85 69.0347-41.162 23.718-24.955 14.3763-24.428 14.078-24.943 14.376-24.695 14.227-24.427 14.078-25.316 14.587-23.825 13.725-25.111 14.475-24.813 14.295-24.459 14.091-24.8 14.295-24.707 14.233-24.807 14.302-24.465 14.09-24.806 14.296-24.695 14.233-24.8063 14.289h-.0063l-24.4587 14.103-24.8003 14.295-24.701 14.234-24.52082 14.127" stroke="url(#d)"/><path d="m537.025 55.3037-41.162 23.718-24.955 14.3821-24.428 14.0782-24.943 14.376-24.695 14.221-24.428 14.078-25.315 14.587-23.82 13.731-25.117 14.475-24.812 14.295-24.453 14.091-24.806 14.289-24.708 14.239-24.806 14.296-24.459 14.097-24.806 14.295h-.007l-24.694 14.227-24.8068 14.295-24.4649 14.097-24.8003 14.295-25.39642 14.637" stroke="url(#e)"/><path d="m511.716 40.7168-41.169 23.7242-24.949 14.3758-24.428 14.0721-24.949 14.3761-24.689 14.227-24.433 14.078-25.31 14.587-23.825 13.731-25.117 14.469-24.807 14.295-24.459 14.097-24.806 14.295-24.707 14.233-24.801 14.296h-.006l-24.458 14.097-24.807 14.289h-.0062l-24.6885 14.239-24.8065 14.295-24.465 14.091h-.0062l-24.88102 14.345" stroke="url(#f)"/><path d="m487.282 26.6387-41.162 23.7242-24.95 14.3758-24.434 14.0783-24.943 14.3697-24.694 14.2333-24.428 14.072-25.31 14.587-23.825 13.731-25.117 14.469-24.807 14.301-24.458 14.091-24.807 14.295h-.006l-24.701 14.233-24.806 14.296h-.007l-24.452 14.097-24.8067 14.295h-.0062l-24.6948 14.227h-.0062l-24.8065 14.295-24.91202 14.357" stroke="url(#g)"/><path d="m462.593 12.4116-41.168 23.7242-24.949 14.3759-24.428 14.0721-24.949 14.3758-24.689 14.2271-24.428 14.0783-25.315 14.593-23.826 13.725-25.111 14.469-24.812 14.295-24.459 14.103h-.006l-24.794 14.289-24.707 14.233-24.807 14.296h-.006l-24.4589 14.09h-.0063l-24.8002 14.302-24.6948 14.233-25.03622 14.425" stroke="url(#h)"/><path d="m1.14258 249.567 24.78782-14.283 24.8065-14.289 24.465-14.103 24.8001-14.296 24.714-14.233 24.8-14.289 24.459-14.103 24.806-14.295 25.117-14.469 23.826-13.725 25.315-14.5928 24.428-14.0721 24.688-14.2271 24.95-14.3759 24.427-14.0782 24.95-14.3759 19.932-11.4871" stroke="url(#i)"/><path d="m660.039 126.185-41.168 23.724h-.006l-24.943 14.376-24.428 14.078-24.949 14.376-24.689 14.227-24.428 14.079-25.315 14.58-23.826 13.731-25.117 14.475-24.8 14.296-24.465 14.09-24.806 14.295-24.701 14.24-24.807 14.295-24.459 14.091-24.812 14.295-24.695 14.233-24.807 14.296-24.458 14.097-24.807 14.295h-.006l-24.701 14.233-24.807 14.295h-.006l-24.4523 14.097-24.8127 14.296-24.7134 14.239-24.91202 14.357" stroke="url(#j)"/><path d="m635.233 111.896-41.162 23.718-24.956 14.376-24.428 14.084-24.943 14.376-24.694 14.221-24.428 14.078-25.316 14.587-23.819 13.725-25.117 14.475-24.806 14.295h-.007l-24.458 14.097-24.801 14.289-24.707 14.24-24.806 14.295-24.459 14.097h-.006l-24.801 14.295-24.694 14.227h-.007l-24.806 14.295-24.465 14.097-24.8 14.296-24.701 14.233-24.8192 14.295-24.4526 14.091h-.0062l-24.8003 14.301-24.82512 14.308" stroke="url(#k)"/><path d="m687.976 167.155-625.2045 360.265" stroke="url(#l)"/><path d="m13.1582 527.413 12.7913-7.371 24.8065-14.295 24.7196-14.239 24.8064-14.296 24.453-14.097 24.812-14.295 24.708-14.233 24.806-14.295 24.459-14.097 24.806-14.295 24.701-14.234 24.807-14.295 24.459-14.091 24.812-14.295 24.701-14.233 24.807-14.296 24.458-14.096 24.807-14.296 25.117-14.475 23.825-13.725 25.316-14.586 24.428-14.079 24.688-14.227 24.95-14.376 24.427-14.078 24.943-14.369 41.169-23.725" stroke="url(#m)"/><path d="m687.97 223.939-526.656 303.48" stroke="url(#n)"/><path d="m687.964 195.349-576.269 332.071" stroke="url(#o)"/><path d="m687.963 280.99-427.641 246.429" stroke="url(#p)"/><path d="m687.963 252.406-477.26 275.014" stroke="url(#q)"/><path d="m687.963 337.774-329.109 189.645" stroke="url(#r)"/><path d="m687.957 309.19-378.717 218.23" stroke="url(#s)"/><path d="m687.957 394.844-230.076 132.576" stroke="url(#t)"/><path d="m687.951 366.248-279.689 161.172" stroke="url(#u)"/><path d="m687.95 451.622-131.54 75.797" opacity=".75" stroke="url(#v)"/><path d="m687.943 423.032-181.146 104.387" stroke="url(#w)"/><path d="m687.988 508.673-32.525 18.747" opacity=".25" stroke="url(#x)"/><path d="m687.981 480.089-82.131 47.33" opacity=".5" stroke="url(#y)"/><path d="m124.598 121.523 24.943 14.376 24.434 14.072 24.943 14.376 24.695 14.233 24.427 14.072 25.31 14.593 23.825 13.725 25.117 14.469 24.807 14.295 24.458 14.097h.007l24.806 14.295 24.701 14.233 24.807 14.296 24.458 14.097 24.813 14.295 24.695 14.233 24.812 14.289 24.459 14.097 24.807 14.295 24.694 14.24h.007l24.812 14.295 24.459 14.091 21 12.101" stroke="url(#z)"/><path d="m149.404 107.228 24.95 14.376 24.427 14.072 24.95 14.376 24.688 14.227 24.428 14.078 25.316 14.593 23.825 13.725 25.111 14.469 24.812 14.295 24.459 14.097 24.801 14.295 24.707 14.234 24.806 14.295h.006l24.459 14.097 24.807 14.295 24.694 14.233h.007l24.8 14.296 24.465 14.09 24.806 14.295 24.701 14.234 24.813 14.301 20.652 11.896" stroke="url(#A)"/><path d="m174.516 92.7529 24.955 14.3761 24.428 14.078 24.943 14.376 24.695 14.227 24.427 14.078 25.316 14.587 23.819 13.725 25.117 14.475 24.813 14.295 24.459 14.091 24.8 14.295 24.707 14.233 24.807 14.302 24.465 14.091 24.806 14.295 24.695 14.233 24.806 14.289h.007l24.458 14.103 24.801 14.296 24.701 14.233 20.354 11.722" stroke="url(#B)"/><path d="m198.34 79.0215 24.949 14.382 24.434 14.0785 24.943 14.376 24.695 14.221 24.428 14.078 25.309 14.586 23.826 13.732 25.116 14.475 24.807 14.295h.006l24.453 14.091 24.806 14.289 24.707 14.239 24.807 14.295 24.459 14.097 24.806 14.296h.006l24.695 14.227 24.807 14.295 24.465 14.097 24.8 14.295 21.23 12.231" stroke="url(#C)"/><path d="m223.662 64.4414 24.943 14.3759 24.428 14.0721 24.949 14.3756 24.689 14.227 24.427 14.079 25.316 14.586 23.826 13.731 25.117 14.469 24.806 14.295 24.459 14.097 24.806 14.296 24.707 14.233 24.801 14.295h.006l24.459 14.097 24.806 14.289h.006l24.689 14.24 24.806 14.295 24.465 14.091 20.721 11.939" stroke="url(#D)"/><path d="m248.084 50.3628 24.949 14.3758 24.434 14.0783 24.943 14.3697 24.689 14.2334 24.434 14.072 25.309 14.587 23.826 13.731 25.117 14.469 24.806 14.301 24.459 14.091 24.806 14.295 24.708 14.233 24.806 14.296h.006l24.453 14.096 24.806 14.296h.007l24.694 14.227h.006l24.807 14.295 20.746 11.958" stroke="url(#E)"/><path d="m272.779 36.1357 24.95 14.3759 24.427 14.0721 24.943 14.3759 24.695 14.227 24.428 14.0784 25.316 14.593 23.825 13.725 25.111 14.469 24.812 14.295 24.459 14.103 24.801 14.289 24.707 14.233 24.806 14.296h.006l24.459 14.09h.006l24.801 14.302 24.694 14.233 20.87 12.026" stroke="url(#F)"/><path d="m297.729 21.7598 24.943 14.3758 24.427 14.0721 24.95 14.3759 24.688 14.2333 24.434 14.072 25.31 14.5931 23.825 13.725 25.117 14.469 24.806 14.295 24.459 14.103 24.807 14.289 24.707 14.233 24.8 14.296.006.006 24.459 14.09 24.807 14.296h.006l20.615 11.883" stroke="url(#G)"/><path d="m688.894 219.011-20.994-12.101-24.465-14.091-24.807-14.295-24.707-14.239-24.8-14.296-24.459-14.09-24.813-14.295-25.116-14.476-23.82-13.7245-25.315-14.5866-24.428-14.0783-24.695-14.2271-24.943-14.3758-24.428-14.0783-19.938-11.4871" stroke="url(#H)"/><path d="m688.894 503.472-20.746-11.958-24.713-14.239-24.813-14.296-24.458-14.097-24.807-14.295-24.701-14.233h-.006l-24.807-14.295-24.458-14.097-24.807-14.296-24.701-14.233-24.806-14.295-24.459-14.091-24.807-14.295-24.707-14.24-24.8-14.295-24.465-14.091-24.8-14.295-25.117-14.475-23.826-13.731-25.315-14.58-24.428-14.079h-.006l-24.683-14.227-24.949-14.376-24.428-14.078-24.949-14.376" stroke="url(#I)"/><path d="m100.133 135.614 24.955 14.376 24.428 14.084 24.937 14.376h.006l24.695 14.221 24.428 14.078 25.315 14.587 23.819 13.725 25.117 14.475 24.813 14.295 24.453 14.097 24.806 14.289 24.707 14.239 24.807 14.296 24.459 14.097 24.806 14.295 24.695 14.227h.006l24.807 14.295 24.465 14.097 24.8 14.295 24.701 14.234 24.819 14.295 24.452 14.091h.006l24.801 14.301 20.658 11.896" stroke="url(#J)"/><path d="m25.8184 178.444 24.9493 14.376 24.4277 14.078 24.9436 14.37h.006l24.682 14.227h.006l24.428 14.078 25.316 14.587 23.825 13.731 25.111 14.469h.006l24.8 14.295 24.465 14.097 24.807 14.295 24.701 14.233 24.812 14.296 24.459 14.09 24.807 14.296 24.694 14.233 24.813 14.295 24.459 14.097 24.806 14.295 24.701 14.234 24.813 14.295 24.459 14.091 24.806 14.295 24.72 14.245 12.791 7.371" stroke="url(#K)"/><path d="m50.6309 164.148 24.9431 14.37 24.428 14.078 24.949 14.376 24.689 14.227 24.427 14.079 25.316 14.586 23.825 13.725 25.111 14.475 24.813 14.295 24.459 14.097 24.806 14.296 24.707 14.233 24.807 14.295 24.458 14.091 24.807 14.295 24.701 14.233 24.806 14.296 24.459 14.097 24.807 14.295 24.707 14.233 24.806 14.295 24.459 14.097 24.807 14.296 24.719 14.239 24.807 14.295 12.791 7.371" stroke="url(#L)"/><path d="m532.89 527.419-526.65562-303.48" stroke="url(#M)"/><path d="m582.509 527.42-576.26877-332.071" stroke="url(#N)"/><path d="m433.881 527.419-427.64077-246.429" stroke="url(#O)"/><path d="m483.5 527.42-477.25391-275.014" stroke="url(#P)"/><path d="m335.35 527.419-329.10391-189.645" stroke="url(#Q)"/><path d="m384.962 527.42-378.71005-218.23" stroke="url(#R)"/><path d="m236.322 527.42-230.07005-132.576" stroke="url(#S)"/><path d="m285.941 527.42-279.68905-161.172" stroke="url(#T)"/><path d="m137.792 527.419-131.54005-75.797" opacity=".75" stroke="url(#U)"/><path d="m187.406 527.419-181.14623-104.387" stroke="url(#V)"/><path d="m38.7396 527.42-32.52476-18.747" opacity=".25" stroke="url(#W)"/><path d="m88.3542 527.419-82.13154-47.33" opacity=".5" stroke="url(#X)"/></g><path d="m612.581 204.743v247.07l-260.608-152.715v-245.683z" fill="url(#Y)" stroke="url(#Z)"/><path d="m589.625 217.423v265.959l-8.426-4.849-8.439-4.849-8.42-4.849-8.438-4.849-8.42-4.849-8.433-4.85-8.432-4.849-8.426-4.849-8.433-4.849-16.858-9.698-8.432-4.85-8.427-4.849-8.432-4.849-8.426-4.849-8.426-4.849-8.439-4.849-8.42-4.85-8.438-4.849-8.42-4.849-8.432-4.849-8.433-4.849-8.426-4.849-8.432-4.85-8.426-4.849-8.427-4.849-8.438-4.849-8.42-4.849-8.439-4.856-8.426-4.843-8.426-4.855-8.426-4.843-8.439-4.855-8.426-4.843-8.432-4.856-.037-.018v-266.3382l.037.0187 8.432 4.8615 8.426 4.8616 8.439 4.8616 8.426 4.8554 8.426 4.8616 8.426 4.8616 8.439 4.8615 8.42 4.8554 8.438 4.8616 8.427 4.8616 8.426 4.8611 8.432 4.856 8.426 4.861 8.433 4.862 8.432 4.862 8.42 4.855 8.438 4.862 8.42 4.861 8.439 4.862 8.426 4.855 8.426 4.862 8.432 4.861 8.427 4.862 8.432 4.855 8.432 4.862 8.426 4.868 8.433 4.855 8.426 4.862 8.432 4.855 8.433 4.868 8.42 4.855 8.438 4.862 8.42 4.855v.006l8.439 4.862z" fill="#0c132c" stroke="url(#aa)"/><path d="m589.625 483.382v-.106-8.574-8.575-8.574-8.581-8.574-8.575-8.574-8.575-8.581-8.574-8.575-8.574-8.581-8.574-8.575-8.575-8.574-8.581-8.574-8.575-8.574-8.575-8.581-8.574-8.575-8.574-8.581-8.574-8.575-8.574-8.575-.006" stroke="#4d66cb"/><path d="m580.943 478.39v-.118-8.575-8.574-8.575-8.58-8.575-8.574-8.575-8.574-8.581-8.575-8.574-8.575-8.58-8.575-8.574-8.575-8.574-8.581-8.575-8.574-8.575-8.574-8.581-8.574-8.575-8.575-8.58-8.575-8.574-8.575-8.568-.013" stroke="#4b64c6"/><path d="m572.269 473.398v-.13-8.581-8.568-8.581-8.575-8.574-8.575-8.58-8.569-8.58-8.575-8.581-8.568-8.581-8.574-8.581-8.568-8.581-8.575-8.574-8.575-8.574-8.575-8.58-8.575-8.574-8.575-8.581-8.574-8.575-8.574-8.569-.012" stroke="#4961c2"/><path d="m563.588 468.406v-.149-8.574-8.575-8.574-8.581-8.574-8.575-8.574-8.575-8.581-8.574-8.575-8.574-8.581-8.575-8.574-8.575-8.574-8.581-8.574-8.575-8.574-8.575-8.581-8.574-8.575-8.574-8.581-8.574-8.575-8.574-8.563-.018" stroke="#475fbd"/><path d="m554.914 463.414v-.161-8.575-8.574-8.575-8.58-8.575-8.574-8.575-8.574-8.581-8.575-8.574-8.575-8.58-8.575-8.574-8.575-8.574-8.581-8.575-8.574-8.575-8.574-8.581-8.575-8.574-8.575-8.58-8.575-8.574-8.575-8.562-.019" stroke="#455cb8"/><path d="m546.232 458.422v-.18-8.574-8.575-8.574-8.581-8.575-8.574-8.575-8.574-8.581-8.574-8.575-8.574-8.581-8.575-8.574-8.575-8.574-8.581-8.574-8.575-8.575-8.574-8.581-8.574-8.575-8.574-8.581-8.575-8.574-8.575-8.555-.025" stroke="#435ab4"/><path d="m537.559 453.43v-.192-8.575-8.574-8.575-8.58-8.575-8.574-8.575-8.575-8.58-8.575-8.574-8.575-8.581-8.574-8.575-8.574-8.575-8.58-8.575-8.574-8.575-8.574-8.581-8.575-8.574-8.575-8.58-8.575-8.574-8.575-8.556-.025" stroke="#4257af"/><path d="m528.879 448.438v-.211-8.574-8.575-8.574-8.581-8.575-8.574-8.575-8.574-8.581-8.575-8.574-8.575-8.58-8.575-8.574-8.575-8.574-8.581-8.575-8.574-8.575-8.574-8.581-8.574-8.575-8.574-8.581-8.575-8.574-8.575-8.543-.037" stroke="#4055aa"/><path d="m520.203 443.446v-.223-8.575-8.574-8.575-8.581-8.574-8.575-8.574-8.575-8.58-8.575-8.574-8.575-8.581-8.574-8.575-8.574-8.575-8.58-8.575-8.575-8.574-8.575-8.58-8.575-8.574-8.575-8.581-8.574-8.575-8.574-8.544-.037" stroke="#3e52a6"/><path d="m511.523 438.454v-.242-8.574-8.575-8.574-8.581-8.569-8.58-8.575-8.574-8.575-8.581-8.574-8.575-8.574-8.581-8.574-8.575-8.574-8.581-8.568-8.581-8.575-8.574-8.575-8.58-8.575-8.574-8.575-8.574-8.581-8.575-8.537-.037" stroke="#3c50a1"/><path d="m502.848 433.463v-.255-8.574-8.575-8.575-8.58-8.575-8.574-8.575-8.574-8.581-8.575-8.574-8.575-8.58-8.575-8.574-8.575-8.574-8.581-8.575-8.574-8.575-8.574-8.581-8.574-8.575-8.574-8.581-8.575-8.574-8.575-8.537-.044" stroke="#3a4e9c"/><path d="m494.174 428.471v-.267-8.581-8.575-8.574-8.575-8.574-8.581-8.574-8.575-8.574-8.575-8.581-8.574-8.575-8.574-8.581-8.574-8.575-8.575-8.574-8.581-8.574-8.575-8.574-8.581-8.575-8.574-8.575-8.574-8.581-8.574-8.531-.044" stroke="#384b98"/><path d="m485.494 423.479v-.286-8.575-8.574-8.575-8.58-8.575-8.574-8.575-8.574-8.581-8.575-8.574-8.575-8.58-8.575-8.575-8.574-8.575-8.58-8.575-8.574-8.575-8.574-8.581-8.575-8.574-8.575-8.58-8.575-8.574-8.575-8.525-.056" stroke="#364993"/><path d="m476.818 418.487v-.298-8.581-8.575-8.574-8.575-8.574-8.581-8.575-8.574-8.575-8.574-8.581-8.574-8.575-8.574-8.581-8.575-8.574-8.575-8.574-8.581-8.574-8.575-8.574-8.581-8.575-8.574-8.575-8.574-8.581-8.575-8.518-.056" stroke="#34468e"/><path d="m468.139 413.494v-.316-8.575-8.574-8.575-8.581-8.574-8.575-8.574-8.575-8.58-8.575-8.574-8.575-8.581-8.574-8.575-8.574-8.575-8.58-8.575-8.574-8.575-8.574-8.581-8.575-8.574-8.575-8.58-8.575-8.575-8.574-8.519-.062" stroke="#32448a"/><path d="m459.463 408.502v-.329-8.58-8.575-8.574-8.575-8.574-8.581-8.575-8.574-8.575-8.574-8.581-8.574-8.575-8.575-8.58-8.575-8.574-8.575-8.574-8.581-8.575-8.574-8.575-8.58-8.575-8.574-8.575-8.574-8.581-8.575-8.512-.062" stroke="#304185"/><path d="m450.783 403.511v-.348-8.574-8.575-8.574-8.581-8.575-8.574-8.575-8.574-8.581-8.574-8.575-8.575-8.58-8.575-8.574-8.575-8.574-8.581-8.575-8.574-8.575-8.574-8.581-8.574-8.575-8.574-8.581-8.575-8.574-8.575-8.512-.068" stroke="#2e3f80"/><path d="m442.107 398.519v-.36-8.581-8.575-8.574-8.575-8.574-8.581-8.574-8.575-8.574-8.575-8.581-8.574-8.575-8.574-8.581-8.574-8.575-8.574-8.575-8.581-8.574-8.575-8.574-8.581-8.575-8.574-8.575-8.574-8.581-8.574-8.507-.068" stroke="#2c3c7b"/><path d="m433.428 393.527v-.373-8.581-8.574-8.575-8.574-8.581-8.574-8.575-8.574-8.581-8.575-8.574-8.575-8.58-8.575-8.574-8.575-8.574-8.581-8.575-8.574-8.575-8.574-8.581-8.575-8.574-8.575-8.58-8.569-8.58-8.575-8.5-.081" stroke="#2b3a77"/><path d="m424.754 388.535v-.391-8.575-8.581-8.568-8.581-8.574-8.581-8.568-8.581-8.575-8.574-8.581-8.574-8.575-8.574-8.581-8.575-8.574-8.575-8.574-8.581-8.574-8.575-8.574-8.581-8.575-8.574-8.575-8.574-8.581-8.574-8.494-.081" stroke="#293872"/><path d="m416.078 383.543v-.404-8.581-8.574-8.575-8.574-8.575-8.58-8.575-8.574-8.575-8.574-8.581-8.575-8.574-8.575-8.58-8.575-8.574-8.575-8.575-8.58-8.575-8.574-8.575-8.581-8.574-8.575-8.574-8.575-8.58-8.575-8.494-.08" stroke="#27356d"/><path d="m407.398 378.551v-.423-8.574-8.575-8.574-8.581-8.574-8.575-8.574-8.575-8.581-8.574-8.575-8.574-8.581-8.574-8.575-8.574-8.575-8.581-8.574-8.575-8.574-8.575-8.581-8.574-8.575-8.574-8.581-8.574-8.575-8.574-8.494-.087" stroke="#253369"/><path d="m398.723 373.559v-.435-8.581-8.574-8.575-8.574-8.575-8.58-8.575-8.575-8.574-8.575-8.58-8.575-8.574-8.575-8.581-8.574-8.575-8.574-8.575-8.58-8.575-8.574-8.575-8.581-8.574-8.575-8.574-8.575-8.58-8.575-8.488-.086" stroke="#233064"/><path d="m390.043 368.567v-.454-8.574-8.575-8.574-8.581-8.574-8.575-8.575-8.574-8.581-8.574-8.575-8.574-8.581-8.575-8.574-8.575-8.574-8.581-8.574-8.575-8.574-8.575-8.581-8.574-8.575-8.574-8.581-8.574-8.575-8.575-8.487-.093" stroke="#212e5f"/><path d="m381.367 363.575v-.466-8.581-8.574-8.575-8.574-8.575-8.581-8.574-8.575-8.574-8.575-8.58-8.575-8.574-8.575-8.581-8.574-8.575-8.574-8.575-8.581-8.574-8.575-8.574-8.581-8.574-8.575-8.574-8.575-8.581-8.574-8.4753-.0993" stroke="#1f2b5b"/><path d="m372.687 358.583v-.484-8.575-8.574-8.575-8.581-8.574-8.575-8.574-8.575-8.58-8.575-8.574-8.575-8.581-8.574-8.575-8.574-8.575-8.581-8.574-8.575-8.574-8.575-8.58-8.575-8.574-8.575-8.581-8.574-8.575-8.574-8.4753-.1056" stroke="#1d2956"/><path d="m364.014 353.591v-.497-8.58-8.575-8.574-8.575-8.575-8.58-8.575-8.574-8.575-8.574-8.581-8.575-8.574-8.575-8.58-8.575-8.574-8.575-8.574-8.581-8.575-8.574-8.575-8.58-8.575-8.574-8.575-8.575-8.58-8.5748-8.4689-.1056" stroke="#1b2751"/><path d="m355.332 348.599v-.509-8.581-8.574-8.575-8.574-8.575-8.581-8.574-8.575-8.574-8.575-8.58-8.575-8.574-8.575-8.581-8.574-8.575-8.574-8.575-8.581-8.574-8.575-8.574-8.581-8.574-8.575-8.574-8.575-8.5806-8.5746-8.4689-.1056" stroke="#19244d"/><path d="m346.658 343.607v-.528-8.581-8.574-8.575-8.574-8.575-8.58-8.575-8.574-8.575-8.574-8.581-8.575-8.574-8.575-8.58-8.575-8.575-8.574-8.575-8.58-8.575-8.574-8.575-8.581-8.574-8.575-8.574-8.575-8.5804-8.5745-8.4628-.1117" stroke="#172248"/><path d="m337.982 338.615v-.54-8.581-8.575-8.574-8.575-8.574-8.581-8.574-8.575-8.574-8.575-8.581-8.574-8.575-8.574-8.581-8.574-8.575-8.574-8.575-8.581-8.574-8.575-8.574-8.581-8.574-8.575-8.575-8.574-8.5808-8.5745-8.4565-.118" stroke="#161f43"/><path d="m329.303 333.623v-.559-8.581-8.574-8.575-8.574-8.575-8.581-8.574-8.575-8.574-8.575-8.58-8.575-8.574-8.575-8.581-8.574-8.575-8.574-8.575-8.58-8.575-8.574-8.575-8.581-8.574-8.575-8.574-8.5748-8.5807-8.5745-8.4504-.1242" stroke="#141d3f"/><path d="m320.627 328.631v-.571-8.581-8.575-8.574-8.575-8.574-8.581-8.574-8.575-8.574-8.575-8.581-8.574-8.575-8.574-8.581-8.575-8.574-8.575-8.574-8.581-8.574-8.575-8.574-8.581-8.575-8.574-8.5747-8.5745-8.5807-8.5745-8.4504-.1241" stroke="#121a3a"/><path d="m311.947 323.639v-.59-8.58-8.575-8.574-8.575-8.574-8.581-8.575-8.574-8.575-8.574-8.581-8.575-8.574-8.575-8.58-8.575-8.574-8.575-8.574-8.581-8.575-8.574-8.575-8.58-8.575-8.574-8.5749-8.5745-8.5808-8.5745-8.4441-.1304" stroke="#101835"/><path d="m303.273 318.647v-.602-8.581-8.574-8.575-8.574-8.575-8.581-8.574-8.575-8.574-8.575-8.58-8.575-8.574-8.575-8.581-8.574-8.575-8.574-8.575-8.58-8.575-8.575-8.574-8.581-8.574-8.5748-8.5745-8.5745-8.5808-8.5745-8.4441-.1304" stroke="#0e1531"/><path d="m294.592 313.655v-.621-8.581-8.574-8.575-8.574-8.575-8.58-8.575-8.574-8.575-8.574-8.581-8.575-8.574-8.575-8.58-8.575-8.574-8.575-8.574-8.581-8.575-8.574-8.575-8.58-8.575-8.5745-8.5746-8.5745-8.5807-8.5745-8.4379-.1366" stroke="#0c132c"/><path d="m589.625 217.429-8.427-4.861-8.438-4.862v-.006l-8.42-4.856v-.006l-8.439-4.861-8.42-4.862-8.432-4.868-8.432-4.861-8.426-4.868-8.433-4.862-8.426-4.867-8.432-4.862-8.433-4.868-8.426-4.861-8.432-4.862-8.426-4.868-8.426-4.861-8.439-4.868-8.42-4.862-8.438-4.868-8.42-4.861-8.433-4.868-8.432-4.861-8.426-4.862-8.432-4.868-8.427-4.8614-8.426-4.8616-8.438-4.8678-8.42-4.8616-8.439-4.8678-8.426-4.8616-8.426-4.8678-8.426-4.8616-8.439-4.8678-8.426-4.8615-8.432-4.8678" stroke="url(#ac)"/><path d="m294.555 55.7363.037.0187 8.432 4.8677 8.426 4.8616 8.439 4.8678 8.426 4.8616 8.426 4.8678 8.426 4.8616 8.439 4.8678 8.42 4.8616 8.438 4.8678 8.427 4.8617 8.426 4.861 8.432 4.868 8.426 4.862 8.433 4.861 8.432 4.868 8.42 4.862 8.438 4.868 8.42 4.861 8.439 4.868 8.426 4.862 8.426 4.867 8.432 4.862 8.427 4.861 8.432 4.868 8.432 4.862 8.426 4.868 8.433 4.861 8.426 4.868 8.432 4.862 8.433 4.867 8.42 4.862 8.438 4.862 8.42 4.867 8.439 4.862 8.426 4.862" stroke="url(#ad)"/><path d="m294.555 64.311.037.0187 8.432 4.8678 8.426 4.8615 8.439 4.8678 8.426 4.8616 8.426 4.8678 8.426 4.8616 8.439 4.8678 8.42 4.8614 8.438 4.868 8.427 4.862 8.426 4.861 8.432 4.868 8.426 4.862 8.433 4.861 8.432 4.868 8.42 4.861 8.438 4.868 8.42 4.862 8.439 4.868 8.426 4.861 8.426 4.868 8.432 4.862 8.427 4.861 8.432 4.868 8.432 4.862 8.426 4.867 8.433 4.862 8.426 4.868 8.432 4.861 8.433 4.868 8.42 4.862 8.438 4.861 8.42 4.868 8.439 4.862 8.426 4.861" stroke="url(#ae)"/><path d="m294.555 72.8916.037.0186 8.432 4.8678 8.426 4.8616 8.439 4.8678 8.426 4.8616 8.426 4.8616 8.426 4.8674 8.439 4.862 8.42 4.862 8.438 4.867 8.427 4.862 8.426 4.868 8.432 4.861 8.426 4.868 8.433 4.862 8.432 4.861 8.42 4.868 8.438 4.862 8.42 4.861 8.439 4.868 8.426 4.862 8.426 4.867 8.432 4.862 8.427 4.868 8.432 4.861 8.432 4.862 8.426 4.868 8.433 4.861 8.426 4.868 8.432 4.862 8.433 4.867 8.42 4.862 8.438 4.868 8.42 4.861 8.439 4.862 8.426 4.862" stroke="url(#af)"/><path d="m294.555 81.4663.037.0186 8.432 4.8678 8.426 4.8616 8.439 4.8678 8.426 4.8619 8.426 4.861 8.426 4.868 8.439 4.862 8.42 4.861 8.438 4.868 8.427 4.862 8.426 4.867 8.432 4.862 8.426 4.868 8.433 4.861 8.432 4.862 8.42 4.868 8.438 4.861 8.42 4.862 8.439 4.868 8.426 4.861 8.426 4.868 8.432 4.862 8.427 4.867 8.432 4.862 8.432 4.862 8.426 4.867 8.433 4.862 8.426 4.868 8.432 4.861 8.433 4.868 8.42 4.862 8.438 4.868 8.42 4.861 8.439 4.862 8.426 4.861" stroke="url(#ag)"/><path d="m294.555 90.041.037.0186 8.432 4.8678 8.426 4.8616 8.439 4.868 8.426 4.861 8.426 4.868 8.426 4.862 8.439 4.868 8.42 4.861 8.438 4.868 8.427 4.862 8.426 4.861 8.432 4.868 8.426 4.861 8.433 4.862 8.432 4.868 8.42 4.861 8.438 4.868 8.42 4.862 8.439 4.868 8.426 4.861 8.426 4.868 8.432 4.862 8.427 4.861 8.432 4.868 8.432 4.862 8.426 4.867 8.433 4.862 8.426 4.868 8.432 4.861 8.433 4.868 8.42 4.862 8.438 4.861 8.42 4.868 8.439 4.862 8.426 4.861" stroke="url(#ah)"/><path d="m294.555 98.6152.037.0187 8.432 4.8681 8.426 4.861 8.439 4.868 8.426 4.862 8.426 4.867 8.426 4.862 8.439 4.868 8.42 4.861 8.438 4.868 8.427 4.862 8.426 4.861 8.432 4.868 8.426 4.862 8.433 4.861 8.432 4.868 8.42 4.862 8.438 4.867 8.42 4.862 8.439 4.868 8.426 4.861 8.426 4.868 8.432 4.862 8.427 4.861 8.432 4.868 8.432 4.862 8.426 4.868 8.433 4.861 8.426 4.868 8.432 4.862 8.433 4.867 8.42 4.862 8.438 4.861 8.42 4.868 8.439 4.862 8.426 4.861" stroke="url(#ai)"/><path d="m294.555 107.19.037.019 8.432 4.867 8.426 4.862 8.439 4.868 8.426 4.861 8.426 4.868 8.426 4.862 8.439 4.867 8.42 4.862 8.438 4.868 8.427 4.861 8.426 4.862 8.432 4.868 8.426 4.861 8.433 4.862 8.432 4.868 8.42 4.861 8.438 4.868 8.42 4.862 8.439 4.868 8.426 4.861 8.426 4.868 8.432 4.862 8.427 4.861 8.432 4.868 8.432 4.861 8.426 4.868 8.433 4.862 8.426 4.868 8.432 4.861 8.433 4.868 8.42 4.862 8.438 4.861 8.42 4.868 8.439 4.862 8.426 4.861" stroke="url(#aj)"/><path d="m294.555 115.771.037.018 8.432 4.868 8.426 4.862 8.439 4.867 8.426 4.862 8.426 4.861 8.426 4.868 8.439 4.862 8.42 4.861 8.438 4.868 8.427 4.862 8.426 4.868 8.432 4.861 8.426 4.868 8.433 4.862 8.432 4.861 8.42 4.868 8.438 4.862 8.42 4.861 8.439 4.868 8.426 4.861 8.426 4.868 8.432 4.862 8.427 4.868 8.432 4.861 8.432 4.862 8.426 4.868 8.433 4.861 8.426 4.868 8.432 4.862 8.433 4.867 8.42 4.862 8.438 4.868 8.42 4.861 8.439 4.862 8.426 4.862" stroke="url(#ak)"/><path d="m294.555 124.345.037.019 8.432 4.868 8.426 4.861 8.439 4.868 8.426 4.862 8.426 4.867 8.426 4.862 8.439 4.868 8.42 4.861 8.438 4.868 8.427 4.862 8.426 4.861 8.432 4.868 8.426 4.862 8.433 4.861 8.432 4.868 8.42 4.862 8.438 4.867 8.42 4.862 8.439 4.868 8.426 4.861 8.426 4.868 8.432 4.862 8.427 4.861 8.432 4.868 8.432 4.862 8.426 4.868 8.433 4.861 8.426 4.868 8.432 4.862 8.433 4.867 8.42 4.862 8.438 4.861 8.42 4.868 8.439 4.862 8.426 4.861" stroke="url(#al)"/><path d="m294.555 132.919.037.019 8.432 4.868 8.426 4.861 8.439 4.868 8.426 4.862 8.426 4.868 8.426 4.861 8.439 4.868 8.42 4.862 8.438 4.867 8.427 4.862 8.426 4.862 8.432 4.867 8.426 4.862 8.433 4.861 8.432 4.868 8.42 4.862 8.438 4.868 8.42 4.861 8.439 4.868 8.426 4.862 8.426 4.867 8.432 4.862 8.427 4.862 8.432 4.867 8.432 4.862 8.426 4.868 8.433 4.861 8.426 4.868 8.432 4.862 8.433 4.868 8.42 4.861 8.438 4.862 8.42 4.867 8.439 4.862 8.426 4.862" stroke="url(#am)"/><path d="m294.555 141.494.037.019 8.432 4.868 8.426 4.861 8.439 4.868 8.426 4.862 8.426 4.867 8.426 4.862 8.439 4.868 8.42 4.861 8.438 4.868 8.427 4.862 8.426 4.861 8.432 4.868 8.426 4.862 8.433 4.861 8.432 4.868 8.42 4.862 8.438 4.867 8.42 4.862 8.439 4.868 8.426 4.861 8.426 4.868 8.432 4.862 8.427 4.861 8.432 4.868 8.432 4.862 8.426 4.867 8.433 4.862 8.426 4.868 8.432 4.861 8.433 4.868 8.42 4.862 8.438 4.861 8.42 4.868 8.439 4.862 8.426 4.861" stroke="url(#an)"/><path d="m294.555 150.075.037.018 8.432 4.868 8.426 4.862 8.439 4.868 8.426 4.861 8.426 4.862 8.426 4.867 8.439 4.862 8.42 4.862 8.438 4.867 8.427 4.862 8.426 4.868 8.432 4.861 8.426 4.868 8.433 4.862 8.432 4.861 8.42 4.868 8.438 4.862 8.42 4.861 8.439 4.868 8.426 4.862 8.426 4.867 8.432 4.862 8.427 4.868 8.432 4.861 8.432 4.862 8.426 4.868 8.433 4.861 8.426 4.868 8.432 4.862 8.433 4.868 8.42 4.861 8.438 4.868 8.42 4.862 8.439 4.861 8.426 4.862" stroke="url(#ao)"/><path d="m294.555 158.649.037.019 8.432 4.868 8.426 4.861 8.439 4.868 8.426 4.862 8.426 4.861 8.426 4.868 8.439 4.862 8.42 4.861 8.438 4.868 8.427 4.862 8.426 4.868 8.432 4.861 8.426 4.868 8.433 4.861 8.432 4.862 8.42 4.868 8.438 4.861 8.42 4.862 8.439 4.868 8.426 4.861 8.426 4.868 8.432 4.862 8.427 4.868 8.432 4.861 8.432 4.862 8.426 4.868 8.433 4.861 8.426 4.868 8.432 4.862 8.433 4.867 8.42 4.862 8.438 4.868 8.42 4.861 8.439 4.862 8.426 4.861" stroke="url(#ap)"/><path d="m294.555 167.224.037.019 8.432 4.868 8.426 4.861 8.439 4.868 8.426 4.862 8.426 4.867 8.426 4.862 8.439 4.868 8.42 4.861 8.438 4.868 8.427 4.862 8.426 4.861 8.432 4.868 8.426 4.862 8.433 4.861 8.432 4.868 8.42 4.862 8.438 4.867 8.42 4.862 8.439 4.868 8.426 4.861 8.426 4.868 8.432 4.862 8.427 4.861 8.432 4.868 8.432 4.862 8.426 4.867 8.433 4.862 8.426 4.868 8.432 4.861 8.433 4.868 8.42 4.862 8.438 4.861 8.42 4.868 8.439 4.862 8.426 4.861" stroke="url(#aq)"/><path d="m294.555 175.798.037.019 8.432 4.868 8.426 4.861 8.439 4.868 8.426 4.862 8.426 4.868 8.426 4.861 8.439 4.868 8.42 4.861 8.438 4.868 8.427 4.862 8.426 4.861 8.432 4.868 8.426 4.862 8.433 4.861 8.432 4.868 8.42 4.862 8.438 4.868 8.42 4.861 8.439 4.868 8.426 4.862 8.426 4.867 8.432 4.862 8.427 4.862 8.432 4.867 8.432 4.862 8.426 4.868 8.433 4.861 8.426 4.868 8.432 4.862 8.433 4.867 8.42 4.862 8.438 4.862 8.42 4.867 8.439 4.862 8.426 4.862" stroke="url(#ar)"/><path d="m294.555 184.373.037.019 8.432 4.867 8.426 4.862 8.439 4.868 8.426 4.861 8.426 4.868 8.426 4.862 8.439 4.868 8.42 4.861 8.438 4.868 8.427 4.862 8.426 4.861 8.432 4.868 8.426 4.862 8.433 4.861 8.432 4.868 8.42 4.861 8.438 4.868 8.42 4.862 8.439 4.868 8.426 4.861 8.426 4.868 8.432 4.862 8.427 4.861 8.432 4.868 8.432 4.862 8.426 4.867 8.433 4.862 8.426 4.868 8.432 4.861 8.433 4.868 8.42 4.862 8.438 4.861 8.42 4.868 8.439 4.862 8.426 4.861" stroke="url(#as)"/><path d="m294.555 192.954.037.018 8.432 4.868 8.426 4.862 8.439 4.867 8.426 4.862 8.426 4.862 8.426 4.867 8.439 4.862 8.42 4.862 8.438 4.867 8.427 4.862 8.426 4.868 8.432 4.861 8.426 4.868 8.433 4.862 8.432 4.861 8.42 4.868 8.438 4.862 8.42 4.861 8.439 4.868 8.426 4.862 8.426 4.867 8.432 4.862 8.427 4.868 8.432 4.861 8.432 4.862 8.426 4.868 8.433 4.861 8.426 4.868 8.432 4.862 8.433 4.867 8.42 4.862 8.438 4.868 8.42 4.861 8.439 4.862 8.426 4.862" stroke="url(#at)"/><path d="m294.555 201.528.037.019 8.432 4.868 8.426 4.861 8.439 4.868 8.426 4.862 8.426 4.861 8.426 4.868 8.439 4.862 8.42 4.861 8.438 4.868 8.427 4.862 8.426 4.867 8.432 4.862 8.426 4.868 8.433 4.861 8.432 4.862 8.42 4.868 8.438 4.861 8.42 4.862 8.439 4.868 8.426 4.861 8.426 4.868 8.432 4.862 8.427 4.867 8.432 4.862 8.432 4.862 8.426 4.867 8.433 4.862 8.426 4.868 8.432 4.861 8.433 4.868 8.42 4.862 8.438 4.868 8.42 4.861 8.439 4.862 8.426 4.861" stroke="url(#au)"/><path d="m294.555 210.103.037.018 8.432 4.868 8.426 4.862 8.439 4.867 8.426 4.862 8.426 4.868 8.426 4.861 8.439 4.868 8.42 4.862 8.438 4.867 8.427 4.862 8.426 4.862 8.432 4.867 8.426 4.862 8.433 4.862 8.432 4.867 8.42 4.862 8.438 4.868 8.42 4.861 8.439 4.868 8.426 4.862 8.426 4.868 8.432 4.861 8.427 4.862 8.432 4.867 8.432 4.862 8.426 4.868 8.433 4.861 8.426 4.868 8.432 4.862 8.433 4.868 8.42 4.861 8.438 4.862 8.42 4.868 8.439 4.861 8.426 4.862" stroke="url(#av)"/><path d="m294.555 218.677.037.019 8.432 4.868 8.426 4.861 8.439 4.868 8.426 4.862 8.426 4.867 8.426 4.862 8.439 4.868 8.42 4.861 8.438 4.868 8.427 4.862 8.426 4.861 8.432 4.868 8.426 4.862 8.433 4.861 8.432 4.868 8.42 4.862 8.438 4.867 8.42 4.862 8.439 4.868 8.426 4.861 8.426 4.868 8.432 4.862 8.427 4.861 8.432 4.868 8.432 4.862 8.426 4.868 8.433 4.861 8.426 4.868 8.432 4.862 8.433 4.867 8.42 4.862 8.438 4.862 8.42 4.867 8.439 4.862 8.426 4.861" stroke="url(#aw)"/><path d="m294.555 227.258.037.018 8.432 4.868 8.426 4.862 8.439 4.868 8.426 4.861 8.426 4.862 8.426 4.868 8.439 4.861 8.42 4.862 8.438 4.868 8.427 4.861 8.426 4.868 8.432 4.861 8.426 4.868 8.433 4.862 8.432 4.861 8.42 4.868 8.438 4.862 8.42 4.861 8.439 4.868 8.426 4.862 8.426 4.868 8.432 4.861 8.427 4.868 8.432 4.862 8.432 4.861 8.426 4.868 8.433 4.862 8.426 4.867 8.432 4.862 8.433 4.868 8.42 4.861 8.438 4.868 8.42 4.862 8.439 4.861 8.426 4.862" stroke="url(#ax)"/><path d="m294.555 235.833.037.018 8.432 4.868 8.426 4.862 8.439 4.867 8.426 4.862 8.426 4.861 8.426 4.868 8.439 4.862 8.42 4.861 8.438 4.868 8.427 4.862 8.426 4.868 8.432 4.861 8.426 4.868 8.433 4.862 8.432 4.861 8.42 4.868 8.438 4.862 8.42 4.861 8.439 4.868 8.426 4.862 8.426 4.867 8.432 4.862 8.427 4.868 8.432 4.861 8.432 4.862 8.426 4.868 8.433 4.861 8.426 4.868 8.432 4.862 8.433 4.867 8.42 4.862 8.438 4.868 8.42 4.861 8.439 4.862 8.426 4.862" stroke="url(#ay)"/><path d="m294.555 244.407.037.019 8.432 4.868 8.426 4.861 8.439 4.868 8.426 4.862 8.426 4.867 8.426 4.862 8.439 4.868 8.42 4.861 8.438 4.868 8.427 4.862 8.426 4.861 8.432 4.868 8.426 4.862 8.433 4.861 8.432 4.868 8.42 4.862 8.438 4.867 8.42 4.862 8.439 4.868 8.426 4.861 8.426 4.868 8.432 4.862 8.427 4.861 8.432 4.868 8.432 4.862 8.426 4.868 8.433 4.861 8.426 4.868 8.432 4.862 8.433 4.867 8.42 4.862 8.438 4.861 8.42 4.868 8.439 4.862 8.426 4.861" stroke="url(#az)"/><path d="m294.555 252.981.037.019 8.432 4.868 8.426 4.861 8.439 4.868 8.426 4.862 8.426 4.868 8.426 4.861 8.439 4.868 8.42 4.862 8.438 4.867 8.427 4.862 8.426 4.862 8.432 4.867 8.426 4.862 8.433 4.862 8.432 4.867 8.42 4.862 8.438 4.868 8.42 4.861 8.439 4.868 8.426 4.862 8.426 4.867 8.432 4.862 8.427 4.862 8.432 4.867 8.432 4.862 8.426 4.868 8.433 4.861 8.426 4.868 8.432 4.862 8.433 4.868 8.42 4.861 8.438 4.862 8.42 4.867 8.439 4.862 8.426 4.862" stroke="url(#aA)"/><path d="m294.555 261.556.037.019 8.432 4.868 8.426 4.861 8.439 4.868 8.426 4.862 8.426 4.867 8.426 4.862 8.439 4.868 8.42 4.861 8.438 4.868 8.427 4.862 8.426 4.861 8.432 4.868 8.426 4.862 8.433 4.861 8.432 4.868 8.42 4.862 8.438 4.867 8.42 4.862 8.439 4.868 8.426 4.861 8.426 4.868 8.432 4.862 8.427 4.861 8.432 4.868 8.432 4.862 8.426 4.867 8.433 4.862 8.426 4.868 8.432 4.861 8.433 4.868 8.42 4.862 8.438 4.861 8.42 4.868 8.439 4.862 8.426 4.861" stroke="url(#aB)"/><path d="m294.555 270.137.037.018 8.432 4.868 8.426 4.862 8.439 4.868 8.426 4.861 8.426 4.862 8.426 4.867 8.439 4.862 8.42 4.862 8.438 4.867 8.427 4.862 8.426 4.868 8.432 4.861 8.426 4.868 8.433 4.862 8.432 4.861 8.42 4.868 8.438 4.862 8.42 4.861 8.439 4.868 8.426 4.862 8.426 4.867 8.432 4.862 8.427 4.868 8.432 4.861 8.432 4.862 8.426 4.868 8.433 4.861 8.426 4.868 8.432 4.862 8.433 4.868 8.42 4.861 8.438 4.868 8.42 4.862 8.439 4.861 8.426 4.862" stroke="url(#aC)"/><path d="m294.555 278.711.037.019 8.432 4.868 8.426 4.861 8.439 4.868 8.426 4.862 8.426 4.861 8.426 4.868 8.439 4.862 8.42 4.861 8.438 4.868 8.427 4.862 8.426 4.868 8.432 4.861 8.426 4.868 8.433 4.861 8.432 4.862 8.42 4.868 8.438 4.861 8.42 4.862 8.439 4.868 8.426 4.861 8.426 4.868 8.432 4.862 8.427 4.868 8.432 4.861 8.432 4.862 8.426 4.868 8.433 4.861 8.426 4.868 8.432 4.862 8.433 4.867 8.42 4.862 8.438 4.868 8.42 4.861 8.439 4.862 8.426 4.861" stroke="url(#aD)"/><path d="m294.555 287.286.037.018 8.432 4.868 8.426 4.862 8.439 4.867 8.426 4.862 8.426 4.868 8.426 4.861 8.439 4.868 8.42 4.862 8.438 4.868 8.427 4.861 8.426 4.862 8.432 4.868 8.426 4.861 8.433 4.862 8.432 4.867 8.42 4.862 8.438 4.868 8.42 4.861 8.439 4.868 8.426 4.862 8.426 4.868 8.432 4.861 8.427 4.862 8.432 4.868 8.432 4.861 8.426 4.868 8.433 4.862 8.426 4.867 8.432 4.862 8.433 4.868 8.42 4.861 8.438 4.862 8.42 4.868 8.439 4.861 8.426 4.862" stroke="url(#aE)"/><path d="m294.555 295.86.037.019 8.432 4.868 8.426 4.861 8.439 4.868 8.426 4.862 8.426 4.868 8.426 4.861 8.439 4.868 8.42 4.861 8.438 4.868 8.427 4.862 8.426 4.861 8.432 4.868 8.426 4.862 8.433 4.861 8.432 4.868 8.42 4.862 8.438 4.868 8.42 4.861 8.439 4.868 8.426 4.862 8.426 4.867 8.432 4.862 8.427 4.862 8.432 4.867 8.432 4.862 8.426 4.868 8.433 4.861 8.426 4.868 8.432 4.862 8.433 4.867 8.42 4.862 8.438 4.862 8.42 4.867 8.439 4.862 8.426 4.862" stroke="url(#aF)"/><path d="m294.555 304.435.037.019 8.432 4.867 8.426 4.862 8.439 4.868 8.426 4.861 8.426 4.868 8.426 4.862 8.439 4.868 8.42 4.861 8.438 4.868 8.427 4.862 8.426 4.861 8.432 4.868 8.426 4.862 8.433 4.861 8.432 4.868 8.42 4.862 8.438 4.867 8.42 4.862 8.439 4.868 8.426 4.861 8.426 4.868 8.432 4.862 8.427 4.861 8.432 4.868 8.432 4.862 8.426 4.867 8.433 4.862 8.426 4.868 8.432 4.861 8.433 4.868 8.42 4.862 8.438 4.861 8.42 4.868 8.439 4.862 8.426 4.861" stroke="url(#aG)"/><path d="m294.555 313.016.037.018 8.432 4.868 8.426 4.862 8.439 4.867 8.426 4.862 8.426 4.862 8.426 4.867 8.439 4.862 8.42 4.862 8.438 4.867 8.427 4.862 8.426 4.868 8.432 4.861 8.426 4.868 8.433 4.862 8.432 4.861 8.42 4.868 8.438 4.862 8.42 4.861 8.439 4.868 8.426 4.862 8.426 4.867 8.432 4.862 8.427 4.868 8.432 4.861 8.432 4.862 8.426 4.868 8.433 4.861 8.426 4.868 8.432 4.862 8.433 4.868 8.42 4.861 8.438 4.868 8.42 4.861 8.439 4.862 8.426 4.862" stroke="url(#aH)"/><path d="m238.527 322.454v-281.5687l325.118 187.7147v281.593z" fill="#101837" stroke="url(#aI)"/><ellipse cx="240.421" cy="31.2889" rx="1.89386" ry="2.99547" stroke="#4d66cb"/><ellipse cx="249.505" cy="36.4857" rx="1.89386" ry="2.99547" stroke="#4d66cb"/><ellipse cx="258.589" cy="41.7386" fill="#4d66cb" rx="1.89386" ry="2.99547"/><path clip-rule="evenodd" d="m248.953 67.3973c-.118-.064-.211-.1642-.267-.2856-.065-.1419-.095-.2974-.087-.4533v-8.9905c0-.1925.037-.3042.099-.3539s.143-.0373.267.0372l2.422 1.397c.703.3867 1.286.9605 1.683 1.6578.371.666.564 1.4168.559 2.1794.02.4071-.086.8107-.305 1.1548-.16.2619-.444.4218-.751.4222v.0621c.244.2079.453.4531.621.7265.215.3538.39.7308.521 1.1238.14.4119.212.844.212 1.279 0 .95-.205 1.5522-.621 1.8068s-1.019.149-1.863-.3229zm2.397-4.5388c.226.1839.538.2202.801.0932.222-.1821.335-.4662.298-.7513.022-.7806-.405-1.5048-1.099-1.8627l-1.664-.9624v2.5271zm.285 4.4829c.354.2049.621.2359.808.0993.186-.1366.285-.4222.285-.8754.002-.4076-.11-.8076-.323-1.1549-.234-.3637-.554-.6644-.931-.8754l-1.788-1.0307v2.7133z" fill="#4d66cb" fill-rule="evenodd"/><path clip-rule="evenodd" d="m269.697 69.1484-.086.5526-.125-.0746c-.31-.18-.527-.2173-.664-.1241-.172.161-.271.3853-.273.6209l-1 6.4572c-.023.123-.038.2475-.043.3726.028.4319.297.8111.695.981l.124.0683-.087.5526-2.806-1.6206.074-.5588.131.0746c.534.3042.85.149.943-.4843l1.006-6.4573c.022-.1252.034-.2518.038-.3788-.03-.4301-.299-.8071-.696-.9748l-.124-.0745.087-.5526z" fill="#4d66cb" fill-rule="evenodd"/><path clip-rule="evenodd" d="m284.003 77.6172c1.091.7138 1.895 1.7887 2.273 3.0361l-.727.3726c-.159-.4656-.367-.9131-.621-1.335-.245-.3828-.572-.7071-.956-.9499-1.304-.7513-1.354.4719-1.354.7264 0 1.1611.857 1.9372 1.546 2.5457l3.043 1.7571c.306.2384.483.6058.478.9934 0 .3974-.211.6209-.478.4409l-1.093-.6209c.191.4816.282.9971.267 1.5149 0 1.0059-.335 2.7506-2.409 1.5461-1.204-.7858-2.106-1.9569-2.558-3.3218l.745-.3912c.3 1.0172.929 1.906 1.788 2.5271.764.447 1.167.3477 1.385-.087.249-.725.113-1.5267-.36-2.1296-.149-.2049-.323-.4036-.522-.6209l-3.999-2.3097c-.31-.2384-.489-.6088-.484-.9997 0-.3973.217-.5898.484-.4408l1.621.9438c-.242-.5411-.367-1.1272-.366-1.7199-.013-2.0986 1.279-2.0676 2.297-1.4777z" fill="#4d66cb" fill-rule="evenodd"/><path clip-rule="evenodd" d="m304.57 98.1191v2.1549l-8.693-5.0234v-2.1545zm-3.682-10.7414c.123.0967.205.2364.23.3911l1.304 7.2148c.037.2111 0 .3725-.162.3539h-.068l-.354-.2049c-.129-.0929-.214-.2341-.236-.3911l-.329-1.8627c-.023-.1553-.108-.2945-.236-.385l-1.627-.9437c-.112-.0621-.205 0-.236.1179l-.329 1.4529c0 .1304-.124.1801-.236.118l-.354-.2049c-.154-.1185-.243-.3024-.242-.4967-.003-.033-.003-.0663 0-.0994l1.304-5.706c.031-.1303.124-.18.23-.1179zm-.571 1.1052-.187-.1056c-.105-.0621-.198 0-.229.1242l-.292 1.2418c-.036.1955.024.3963.161.5402.02.0222.043.041.069.0558l.77.4409c.13.0807.242 0 .242-.2173.003-.0372.003-.0746 0-.1118l-.292-1.6019c-.034-.1475-.12-.2778-.242-.3663z" fill="#4d66cb" fill-rule="evenodd"/><path clip-rule="evenodd" d="m323.458 102.583 1.999 4.129-1.999 1.819c-.093.081-.248 0-.342-.198l-.31-.659-.528.485-2.266-1.31 1.614-1.459-.379-.789zm3.105-.67.676 1.428c.354.738.354 1.602 0 1.924l-1.397 1.273-.863-1.794-.261-.534-.863-1.782 1.416-1.242c.373-.341.95-.006 1.304.714z" fill="#4d66cb" fill-rule="evenodd"/><path clip-rule="evenodd" d="m328.699 112.79v2.149l-8.693-5.023v-2.155z" fill="#4d66cb" fill-rule="evenodd"/><path clip-rule="evenodd" d="m350.899 116.299v-.739c.004-.391-.175-.762-.485-1l-5.793-3.347c-.261-.155-.478.044-.478.441v2.869c-.007.39.17.76.478.999l5.793 3.347c.267.155.485-.043.485-.441v-.695l.478.279v2.869l-4.825-2.788v6.457c-.005.391.175.761.484 1l.963.559c.267.149.484-.05.484-.441v-5.023l3.862 2.229v-5.743z" fill="#4d66cb" fill-rule="evenodd"/><path d="m562.614 258.049-324.05-187.0812" stroke="#4d66cb"/><path clip-rule="evenodd" d="m365.85 124.606 6.755 3.906c.309.237.488.605.485.993 0 .398-.218.621-.485.441l-6.755-3.905c-.31-.239-.49-.609-.485-1 .007-.397.224-.59.485-.435zm0 2.869 3.862 2.229c.307.24.484.61.478 1 0 .397-.211.589-.478.44l-3.862-2.235c-.308-.237-.488-.605-.485-.993.007-.398.224-.596.485-.441zm0 5.743 3.862 2.229c.307.24.484.61.478 1 0 .397-.211.59-.478.434l-3.862-2.229c-.31-.238-.49-.608-.485-.999.007-.391.224-.59.485-.435zm0-2.875 6.755 3.912c.309.237.488.605.485.994 0 .397-.218.62-.485.44l-6.755-3.905c-.31-.238-.49-.609-.485-1 .007-.397.224-.59.485-.441z" fill="#4d66cb" fill-rule="evenodd"/><path clip-rule="evenodd" d="m382.746 134.373 6.756 3.905c.308.238.487.605.484.994 0 .397-.217.621-.484.441l-6.756-3.906c-.31-.238-.489-.608-.484-.999 0-.398.217-.59.484-.435zm1.447 3.725 3.862 2.229c.31.239.489.609.485 1 0 .397-.218.59-.485.441l-3.862-2.235c-.308-.24-.485-.61-.478-1 0-.41.211-.621.478-.453zm0 5.744 3.862 2.229c.31.238.489.608.485.999 0 .391-.218.59-.485.435l-3.862-2.229c-.308-.24-.485-.61-.478-1 0-.416.211-.608.478-.453zm-1.447-3.726 6.756 3.912c.308.237.487.605.484.993 0 .398-.217.621-.484.441l-6.756-3.905c-.31-.239-.489-.609-.484-1 0-.403.217-.596.484-.447z" fill="#4d66cb" fill-rule="evenodd"/><path clip-rule="evenodd" d="m399.156 143.86 6.756 3.906c.306.238.483.606.478.993 0 .398-.211.621-.478.441l-6.756-3.905c-.309-.239-.489-.609-.484-1 0-.397.217-.59.484-.435zm2.894 4.545 3.862 2.229c.308.24.485.61.478 1 0 .397-.211.59-.478.435l-3.862-2.229c-.31-.239-.489-.609-.484-1 0-.373.217-.59.484-.435zm0 5.737 3.862 2.236c.308.239.485.609.478.999 0 .391-.211.59-.478.435l-3.862-2.229c-.31-.239-.489-.609-.484-1 0-.397.217-.59.484-.441zm-2.894-4.545 6.756 3.912c.306.238.483.606.478.993 0 .398-.211.621-.478.441l-6.756-3.905c-.309-.239-.489-.609-.484-1 0-.397.217-.59.484-.441z" fill="#4d66cb" fill-rule="evenodd"/><path clip-rule="evenodd" d="m415.563 153.347 6.755 3.906c.308.237.488.604.485.993 0 .398-.218.621-.485.441l-6.755-3.905c-.31-.239-.49-.609-.485-1 0-.391.218-.59.485-.435zm0 2.869 6.755 3.905c.31.239.49.609.485 1 0 .397-.218.59-.485.435l-6.755-3.906c-.308-.237-.488-.605-.485-.993 0-.398.218-.596.485-.441zm0 2.868 6.755 3.912c.308.237.488.605.485.993 0 .398-.218.621-.485.441l-6.755-3.905c-.31-.239-.49-.609-.485-1 0-.397.218-.59.485-.441zm0 2.875 6.755 3.906c.31.238.49.608.485.999 0 .391-.218.59-.485.435l-6.755-3.93c-.308-.238-.488-.605-.485-.994 0-.372.218-.571.485-.416z" fill="#4d66cb" fill-rule="evenodd"/><path clip-rule="evenodd" d="m438.244 175.42 3.862 2.229c.308.24.485.61.479 1 0 .391-.212.59-.479.434l-3.862-2.229c-.31-.238-.489-.608-.484-.999 0-.398.217-.59.484-.435zm0-4.309 3.862 2.229c.308.24.485.61.479 1 0 .397-.212.59-.479.441l-3.862-2.236c-.308-.237-.487-.604-.484-.993 0-.397.217-.596.484-.441zm0-4.309 3.862 2.235c.306.239.483.606.479.994 0 .397-.212.621-.479.441l-3.862-2.229c-.31-.239-.489-.609-.484-1 0-.397.217-.59.484-.441zm-1.931-1.832v2.515c0 .193-.105.292-.242.217-.154-.118-.244-.302-.242-.496v-1.795l-.236-.142c-.154-.119-.244-.303-.242-.497 0-.199.105-.298.242-.218zm-.484 6.029c0 .083.039.161.105.211l.621.361c.154.118.244.302.242.496 0 .199-.111.298-.242.218l-.763-.441c-.283-.215-.447-.552-.441-.907v-.161c0-.298.124-.491.31-.491h.547c.062 0 .105-.062.105-.161.004-.086-.036-.167-.105-.217l-.621-.305c-.159-.116-.254-.3-.255-.496 0-.211.112-.317.255-.236l.751.434c.28.22.443.557.441.913v.155c0 .304-.124.497-.317.491h-.552c-.038-.044-.081.043-.081.136zm.968 3.583v1.434c0 .398-.217.59-.484.441l-.72-.422c-.154-.119-.244-.303-.242-.497 0-.205.105-.298.242-.223l.577.335c.081.043.143 0 .143-.131.002-.116-.051-.226-.143-.298l-.621-.36c-.123-.097-.194-.246-.192-.403 0-.156.087-.236.192-.174l.621.366c.081.044.143 0 .143-.13.003-.117-.05-.227-.143-.298l-.577-.336c-.156-.119-.246-.306-.242-.502 0-.199.105-.298.242-.218l.72.416c.31.239.489.609.484 1z" fill="#4d66cb" fill-rule="evenodd"/><path clip-rule="evenodd" d="m462.858 181.033 3.856 2.235c.31.239.49.609.485 1 0 .391-.218.59-.485.434l-3.856-2.229c-.309-.238-.489-.608-.484-.999 0-.398.217-.59.484-.441zm0 4.309 3.856 2.235c.308.237.488.605.485.994 0 .397-.218.62-.485.44l-3.856-2.235c-.308-.237-.487-.605-.484-.993 0-.398.217-.596.484-.441zm0 4.309 3.856 2.229c.31.238.49.609.485 1 0 .397-.218.62-.485.434l-3.856-2.229c-.309-.238-.489-.609-.484-.999 0-.398.217-.59.484-.435zm-3.104-9.711c-.019-.227.058-.452.211-.621.146-.125.362-.125.509 0 .23.151.409.368.515.621.135.277.207.58.211.888.016.227-.06.45-.211.621-.151.119-.364.119-.515 0-.228-.151-.406-.367-.509-.621-.149-.273-.232-.577-.242-.888zm0 4.303c-.02-.227.056-.453.211-.621.146-.126.362-.126.509 0 .231.15.411.366.515.621.135.275.207.576.211.882.016.226-.06.45-.211.621-.148.126-.367.126-.515 0-.231-.149-.409-.366-.509-.621-.148-.272-.231-.573-.242-.882zm0 4.309c-.019-.227.058-.452.211-.621.147-.123.362-.123.509 0 .229.152.408.368.515.621.135.275.207.576.211.882.016.226-.06.45-.211.62-.15.122-.365.122-.515 0-.228-.151-.406-.367-.509-.62-.149-.271-.231-.573-.242-.882z" fill="#4d66cb" fill-rule="evenodd"/><path clip-rule="evenodd" d="m485.069 193.873 5.794 3.347c.307.24.484.61.478.999 0 .398-.217.59-.478.435l-5.794-3.347c-.309-.238-.489-.608-.484-.999-.012-.391.205-.59.484-.435zm2.41 4.266 3.384 1.956c.305.238.482.605.478.993 0 .397-.217.621-.478.441l-3.384-1.956c-.306-.238-.483-.606-.478-.993-.013-.398.204-.596.465-.441zm0 2.868 3.384 1.956c.305.238.482.606.478.994 0 .397-.217.62-.478.44l-3.384-1.949c-.308-.24-.485-.61-.478-1-.013-.397.204-.59.465-.441zm-2.41 1.478 5.794 3.347c.307.239.484.609.478.999 0 .398-.217.59-.478.441l-5.794-3.353c-.308-.237-.487-.604-.484-.993-.012-.398.205-.596.484-.441zm.752-2.316c.217.315.265.716.13 1.074-.149.242-.447.155-.67-.192l-1.453-2.291c-.286-.447-.286-1.075 0-1.192l1.446-.621c.224-.094.522.167.671.583s.087.826-.13.919l-.845.348z" fill="#4d66cb" fill-rule="evenodd"/><path clip-rule="evenodd" d="m501.462 203.36 5.793 3.347c.31.238.489.609.485 1 0 .397-.218.59-.485.434l-5.793-3.346c-.306-.239-.483-.606-.478-.994 0-.397.229-.596.478-.441zm2.415 4.266 3.378 1.956c.308.237.488.605.485.993 0 .398-.218.621-.485.441l-3.378-1.956c-.308-.237-.487-.605-.484-.993 0-.398.217-.615.484-.441zm0 2.868 3.378 1.956c.31.239.489.609.485 1 0 .391-.218.59-.485.435l-3.378-1.95c-.309-.238-.489-.609-.484-1 0-.378.217-.59.484-.441zm-2.415 1.478 5.793 3.347c.31.238.489.609.485.999 0 .398-.218.621-.485.441l-5.793-3.353c-.306-.238-.483-.605-.478-.993 0-.397.229-.615.478-.441zm-1.242-3.464.844-.348-.844-1.329c-.222-.313-.273-.716-.137-1.074.149-.242.447-.155.671.193l1.447 2.272c.285.447.285 1.074 0 1.192l-1.447.621c-.224.087-.522-.174-.671-.59s-.074-.844.149-.937z" fill="#4d66cb" fill-rule="evenodd"/><path clip-rule="evenodd" d="m313.574 97.7467c.155-.1304.385 0 .534.3167.145.2561.145.5696 0 .8257l-2.037 1.9679c-.149.143-.391 0-.54-.316l-2.043-4.3465c-.148-.251-.148-.5624 0-.8134.143-.1428.379 0 .528.2918l1.769 3.7254z" fill="#4d66cb" fill-rule="evenodd"/><path clip-rule="evenodd" d="m338.188 111.977c.149-.13.385 0 .534.317.145.256.145.569 0 .826l-2.037 1.968c-.149.143-.391 0-.54-.317l-2.043-4.346c-.146-.251-.146-.562 0-.813.149-.143.385 0 .534.291l1.77 3.726z" fill="#4d66cb" fill-rule="evenodd"/><path clip-rule="evenodd" d="m453.041 178.388c.156-.131.392 0 .534.323.142.257.142.568 0 .825l-2.036 1.962c-.149.143-.391 0-.54-.31l-2.043-4.346c-.147-.252-.147-.562 0-.814.142-.136.378 0 .527.292l1.77 3.757z" fill="#4d66cb" fill-rule="evenodd"/><path clip-rule="evenodd" d="m477.656 192.619c.149-.131.385 0 .534.322.145.257.145.57 0 .826l-2.037 1.962c-.149.143-.391 0-.54-.31l-2.043-4.346c-.151-.251-.151-.564 0-.814.143-.136.379 0 .528.298l1.769 3.726z" fill="#4d66cb" fill-rule="evenodd"/><path d="m265.934 127.85 138.711 80.089" stroke="url(#aK)"/><path d="m264.693 148.575 271.784 156.663" stroke="url(#aL)"/><path d="m264.693 193.575 246.082 141.847" stroke="#4d66cb"/><path d="m417.516 258.808 47.644 27.259" stroke="#4d66cb"/><path d="m264.693 170.85 137.714 79.708" stroke="#4d66cb"/><path d="m264.93 215.647 40.294 23.323" stroke="#4d66cb"/><path d="m329.741 243.989v100.562l-154.163 86.819v-100.562z" fill="url(#aM)" stroke="url(#aN)" stroke-width="1.15625"/><path d="m339.588 353.315-155.318 87.47v-101.889l155.318-87.47z" fill="url(#aO)"/><path d="m348.854 361.741-155.319 87.47v-101.888l155.319-87.47z" fill="#315dff"/><path d="m314.852 363.082-112.11 63.131v-27.449l112.11-63.131z" fill="#17224f"/><path d="m335.863 351.254-16.65 9.377v-27.45l16.65-9.377z" fill="#fff"/><path d="m211.91 374.24-2.625 1.48 4.012-21.402 3.157-1.781 4.001 16.893-2.625 1.48-2.902-13.135-.093.046-2.914 16.407zm-.174-7.435 6.209-3.492v3.157l-6.209 3.492z" fill="#fff"/><path d="m224.293 348.12v19.148l-2.451 1.387v-19.147z" fill="#fff"/><path d="m232.017 362.92-2.624 1.48 4.012-21.403 3.156-1.78 4.001 16.893-2.625 1.48-2.902-13.135-.092.046-2.914 16.407zm-.162-7.435 6.209-3.492v3.157l-6.209 3.491z" fill="#fff"/><path d="m248.946 343.125-2.209 1.469c-.034-.29-.115-.532-.242-.706-.128-.185-.289-.289-.486-.335-.197-.035-.439.023-.717.173-.37.208-.694.521-.948.925-.254.405-.382.821-.382 1.249 0 .347.081.59.243.728.162.139.451.174.856.093l1.572-.358c.844-.185 1.48-.081 1.897.312.416.393.624 1.121.624 2.15 0 .937-.173 1.862-.497 2.764-.336.902-.786 1.711-1.376 2.428-.578.728-1.249 1.295-2 1.723-1.157.647-2.07.763-2.752.358-.683-.416-1.087-1.272-1.203-2.578l2.37-1.538c.07.543.243.879.521 1.029.277.15.624.104 1.064-.139.427-.243.763-.566 1.017-.983.254-.416.393-.844.393-1.271 0-.359-.092-.602-.277-.74-.185-.128-.463-.151-.844-.07l-1.504.359c-.855.196-1.48.069-1.896-.394-.416-.462-.624-1.225-.624-2.289 0-.925.15-1.804.451-2.636.3-.833.728-1.596 1.283-2.266.555-.671 1.203-1.214 1.943-1.642 1.098-.625 1.965-.717 2.601-.312.636.416 1.006 1.248 1.11 2.509z" fill="#fff"/><path d="m257.907 338.071-2.208 1.469c-.035-.289-.116-.521-.243-.706s-.289-.289-.486-.335c-.196-.035-.439.023-.717.174-.37.208-.694.52-.948.925-.254.404-.381.821-.381 1.248 0 .347.08.59.254.729.162.139.451.173.856.092l1.572-.358c.844-.185 1.48-.081 1.896.312.416.405.625 1.122.625 2.151 0 .936-.174 1.861-.498 2.763-.335.902-.786 1.711-1.375 2.428-.579.729-1.249 1.295-2.001 1.723-1.156.648-2.069.763-2.752.358-.682-.416-1.075-1.271-1.202-2.578l2.37-1.538c.07.544.243.879.52 1.029.278.151.625.104 1.064-.138.428-.243.763-.567 1.018-.983.254-.417.393-.844.393-1.272 0-.359-.093-.601-.278-.74-.185-.127-.462-.15-.844-.07l-1.503.359c-.855.196-1.48.069-1.896-.393-.416-.463-.624-1.226-.624-2.29 0-.925.15-1.803.462-2.636.301-.844.728-1.595 1.283-2.266s1.203-1.214 1.943-1.642c1.098-.624 1.966-.717 2.602-.312.635.416 1.005 1.249 1.109 2.509z" fill="#fff"/><path d="m260.844 330.476c-.359.208-.671.173-.925-.069-.255-.255-.382-.66-.382-1.215s.127-1.086.382-1.63c.254-.543.566-.913.925-1.11.358-.196.67-.173.925.081.254.254.381.648.381 1.203s-.127 1.098-.381 1.641c-.255.544-.567.914-.925 1.11zm-1.214 16.893v-14.361l2.416-1.364v14.36z" fill="#fff"/><path d="m271.213 330.58-2.208 1.468c-.035-.289-.116-.532-.243-.705-.127-.185-.289-.289-.485-.335-.197-.035-.44.023-.717.173-.37.208-.694.52-.948.925-.255.405-.382.821-.382 1.249 0 .347.081.589.243.728s.451.174.855.093l1.573-.359c.844-.185 1.48-.081 1.896.312.416.405.625 1.122.625 2.151 0 .937-.174 1.862-.498 2.763-.335.902-.786 1.712-1.376 2.429-.578.716-1.248 1.295-2 1.722-1.156.648-2.07.764-2.752.359-.682-.416-1.087-1.272-1.202-2.579l2.37-1.537c.069.543.243.878.52 1.029.278.15.625.104 1.064-.139.428-.243.763-.567 1.018-.983.254-.416.393-.844.393-1.272 0-.358-.093-.601-.278-.74-.185-.127-.462-.15-.844-.069l-1.503.358c-.844.197-1.48.07-1.896-.393-.416-.462-.625-1.225-.625-2.289 0-.925.151-1.804.463-2.636.301-.845.728-1.596 1.283-2.267.555-.67 1.203-1.214 1.943-1.642 1.098-.612 1.965-.716 2.601-.312.636.417 1.006 1.249 1.11 2.509z" fill="#fff"/><path d="m277.562 322.914v2.994l-5.238 2.949v-2.995zm-4.047-1.168 2.417-1.365v13.39c0 .37.034.636.104.798.069.161.162.254.289.265.127.012.266-.023.428-.115.115-.07.231-.15.335-.243.116-.104.197-.173.254-.22l.382 2.752c-.116.127-.289.301-.509.509s-.485.405-.798.601c-.578.37-1.087.52-1.526.474s-.775-.312-1.017-.798c-.243-.485-.359-1.191-.359-2.139z" fill="#fff"/><path d="m281.621 335.251c-.555.312-1.052.427-1.48.358-.439-.081-.775-.358-1.029-.855-.254-.498-.382-1.215-.382-2.163 0-.797.093-1.514.266-2.162.174-.647.417-1.214.729-1.723.3-.497.659-.948 1.04-1.329.394-.393.798-.74 1.238-1.053.508-.37.913-.682 1.225-.936s.532-.497.671-.729c.139-.231.208-.508.208-.809v-.058c0-.589-.116-.983-.335-1.179-.22-.197-.544-.185-.96.046-.439.243-.775.601-1.041 1.052-.254.463-.427.948-.508 1.469l-2.232.959c.116-.936.335-1.815.671-2.647.335-.833.763-1.561 1.283-2.209.532-.647 1.133-1.156 1.839-1.549.485-.278.948-.44 1.387-.497.439-.058.844 0 1.179.196.347.197.613.544.821 1.052.197.498.301 1.18.301 2.035v9.69l-2.289 1.295v-1.989l-.07.035c-.138.532-.323 1.029-.566 1.503-.232.474-.521.89-.844 1.272-.324.37-.706.682-1.133.925zm.682-3.134c.359-.196.671-.497.937-.878.277-.394.485-.821.636-1.307.15-.486.231-.983.231-1.492v-1.526c-.081.127-.185.255-.312.393-.127.139-.278.278-.44.428-.161.139-.323.289-.485.416-.162.128-.312.255-.44.359-.289.231-.531.474-.74.74-.208.266-.37.566-.497.879-.115.312-.173.659-.173 1.04 0 .544.115.89.358 1.041.243.15.544.115.914-.093z" fill="#fff"/><path d="m290.799 321.516v8.301l-2.416 1.365v-14.361l2.301-1.295v2.532l.104-.057c.196-.949.52-1.793.971-2.533s1.006-1.295 1.653-1.665c.602-.335 1.134-.416 1.585-.231.45.185.797.613 1.052 1.272.254.671.37 1.561.37 2.671v9.146l-2.417 1.364v-8.429c0-.879-.139-1.491-.405-1.827-.277-.335-.659-.37-1.144-.104-.324.185-.613.463-.856.833s-.439.809-.578 1.329c-.139.521-.208 1.087-.208 1.7z" fill="#fff"/><path d="m302.943 308.611v2.995l-5.238 2.948v-2.995zm-4.047-1.156 2.417-1.365v13.39c0 .37.034.636.104.797.069.162.162.255.289.266.127.012.266-.023.428-.115.115-.07.231-.151.335-.243.115-.104.196-.173.266-.231l.381 2.752c-.115.127-.289.3-.508.508-.22.208-.486.405-.798.602-.578.37-1.087.52-1.526.474-.44-.047-.775-.313-1.018-.798-.243-.474-.358-1.191-.358-2.139v-13.91z" fill="#fff"/><path d="m299.658 357.913-88.916 50.078v-.694l88.916-50.077z" fill="#4c63ab"/><path d="m328.828 350.898s-.012 0-.023.012c-.29.15-.521-.024-.602-.44l-.936-4.752-3.527.069c-.266 0-.439-.3-.439-.763 0-.462.173-.959.439-1.272l7.574-8.66c.242-.277.497-.324.682-.127.173.196.231.601.15 1.04l-2.694 13.829c-.092.486-.335.902-.613 1.052zm-4.787-6.267 3.469-.081c.208 0 .358.185.416.486l.89 4.544 2.613-13.39-7.4 8.453z" fill="#1d1d1b"/><path d="m165 257.468c-.025-.853.145-1.501.444-1.97.153-.239.324-.436.486-.657.214-.263.427-.526.641-.789 12.175-14.992 24.358-29.976 36.541-44.968 1.28-1.579 2.27-1.033 3.55 1.911 2.295 5.264 1.169 2.679 3.455 7.96 1.203 2.765 1.212 4.599.026 6.058-12.448 15.323-24.897 30.647-37.353 45.953-1.169 1.433-2.218.862-3.379-1.834-2.355-5.427-1.305-3.012-3.669-8.438-.452-1.033-.776-2.082-.75-3.243z" fill="url(#aP)"/><path d="m210.399 222.052c-.077-.213-.162-.512-.281-.785-1.63-3.754-3.26-7.499-4.872-11.262-.367-.853-.606-.845-.93-.444-2.355 2.944-4.718 5.87-7.09 8.763-.35.426-.367.844 0 1.655 1.621 3.694 3.233 7.406 4.829 11.134.333.785.58.981.93.538 2.372-2.978 4.761-5.896 7.141-8.848.128-.162.29-.29.282-.759z" fill="#fff"/><path d="m189.444 205.492c-.171-.145-.205-.469-.281-.734-.436-1.715-.93-3.404-1.476-5.068-1.366-4.146-3.2-7.542-5.273-10.571-.162-.239-.435-.452-.452-.836-.017-.478.29-.367.469-.427 2.952-1.049 5.179-3.779 6.663-8.207.094-.265.111-.794.393-.606.205.136.256.631.341.981 1.493 6.058 3.729 11.194 6.706 15.417.162.231.435.435.427.853 0 .393-.273.308-.435.376-2.978 1.032-5.213 3.78-6.706 8.25-.205.615-.248.657-.367.606v-.026z" fill="url(#aQ)"/><path d="m220.942 192.08c.162.162.205.443.265.674 1.109 4.539 2.773 8.395 5.017 11.552.136.188.341.375.315.699-.017.308-.204.282-.341.325-2.218.759-3.865 2.815-4.974 6.126-.068.196-.103.529-.299.401-.179-.12-.222-.487-.29-.76-1.092-4.462-2.739-8.25-4.931-11.364-.154-.205-.384-.393-.367-.777 0-.315.205-.281.341-.324 2.218-.768 3.865-2.815 4.966-6.143.068-.205.111-.478.298-.409z" fill="url(#aR)"/><path d="m216.125 256.939c-.188-.145-.247-.46-.316-.725-.938-3.72-2.312-6.911-4.146-9.53-.444-.649-.444-1.007 0-1.178 1.826-.674 3.208-2.388 4.146-5.119.248-.716.453-.392.666.427.93 3.677 2.295 6.825 4.095 9.411.486.699.486 1.066 0 1.245-1.8.657-3.157 2.364-4.095 5.026-.077.221-.128.537-.341.435h-.009z" fill="url(#aS)"/><path d="m423.539 427.658-65.539 37.955.003-104.185 65.536-37.428z" fill="#0c132c" stroke="url(#aT)" stroke-miterlimit="10" stroke-width=".525604"/><path d="m405.471 385.841-25.133 14.429" stroke="#3f54aa" stroke-miterlimit="10" stroke-width=".304553"/><path d="m377.383 401.963-5.299 3.042" stroke="#3f54aa" stroke-miterlimit="10" stroke-width=".304553"/><path d="m405.471 400.557-25.133 14.429" stroke="#3f54aa" stroke-miterlimit="10" stroke-width=".304553"/><path d="m377.383 416.679-5.299 3.042" stroke="#3f54aa" stroke-miterlimit="10" stroke-width=".304553"/><path d="m405.471 414.544-25.133 14.428" stroke="#3f54aa" stroke-miterlimit="10" stroke-width=".304553"/><path d="m377.383 430.666-5.299 3.042" stroke="#3f54aa" stroke-miterlimit="10" stroke-width=".304553"/><path clip-rule="evenodd" d="m427.745 353.006-64.278 37.143v-24.757l64.278-37.148z" fill-rule="evenodd" stroke="url(#aU)" stroke-width=".525604"/><path d="m432 331.119v24.657l-64.111 37.001v-24.762z" fill="#233477"/><path d="m415.424 354.002-28.941 16.532" stroke="#fff" stroke-miterlimit="10" stroke-width="1.83688"/><path d="m383.082 372.477-6.102 3.485" stroke="#fff" stroke-miterlimit="10" stroke-width="1.83688"/></svg>